<?xml version="1.0" encoding="utf-8"?>
<!-- Generator: Adobe Illustrator 19.0.0, SVG Export Plug-In . SVG Version: 6.00 Build 0)  -->
<svg version="1.1" id="Layer_1" xmlns="http://www.w3.org/2000/svg" xmlns:xlink="http://www.w3.org/1999/xlink" x="0px" y="0px"
	 viewBox="0 0 215 430" style="enable-background:new 0 0 215 430;" xml:space="preserve">
<style type="text/css">
	.st0{fill:none;stroke:#FFFFFF;stroke-width:2.144;stroke-linecap:round;stroke-linejoin:round;stroke-miterlimit:10;}
	.st1{fill:#FFFFFF;}
	.st2{fill:none;stroke:#FFFFFF;stroke-miterlimit:10;}
	.st3{fill:none;}
</style>
<path id="XMLID_461_" class="st0" d="M179.4,129.7c0,0-3.2-15.3,13.2-18.8c16.4-3.6,22.3-11.6,22.3-11.6"/>
<path id="XMLID_460_" class="st0" d="M214.9,122.2c0,0-8.7-15,0-15"/>
<path id="XMLID_459_" class="st0" d="M208.6,122.2c0,0-1.3-10.9-5.5-9.2S208.6,122.2,208.6,122.2z"/>
<path id="XMLID_458_" class="st0" d="M206.8,100.8c0,0-32.8-62.5,8.1-62.5"/>
<path id="XMLID_457_" class="st0" d="M214.9,93.2c0,0-17.4-43.2,0-43.2"/>
<path id="XMLID_456_" class="st0" d="M211,97.3c0,0-25.3-53.5,3.9-53.5"/>
<path id="XMLID_455_" class="st1" d="M203.5,102.4c0,1.1-0.9,1.9-1.9,1.9c-1.1,0-1.9-0.9-1.9-1.9s0.9-1.9,1.9-1.9
	C202.7,100.5,203.5,101.4,203.5,102.4"/>
<circle id="XMLID_454_" class="st2" cx="201.6" cy="102.4" r="1.9"/>
<path id="XMLID_453_" class="st1" d="M201.6,36.7c0,1.1-0.9,1.9-1.9,1.9c-1.1,0-1.9-0.9-1.9-1.9s0.9-1.9,1.9-1.9
	C200.8,34.8,201.6,35.6,201.6,36.7"/>
<circle id="XMLID_452_" class="st2" cx="199.7" cy="36.7" r="1.9"/>
<path id="XMLID_451_" class="st1" d="M197.3,40.3c0,1.1-0.9,1.9-1.9,1.9c-1.1,0-1.9-0.9-1.9-1.9s0.9-1.9,1.9-1.9
	C196.4,38.4,197.3,39.2,197.3,40.3"/>
<circle id="XMLID_450_" class="st2" cx="195.4" cy="40.3" r="1.9"/>
<path id="XMLID_449_" class="st1" d="M194.1,45c0,1.1-0.9,1.9-1.9,1.9c-1.1,0-1.9-0.9-1.9-1.9s0.9-1.9,1.9-1.9
	C193.3,43.1,194.1,44,194.1,45"/>
<circle id="XMLID_448_" class="st2" cx="192.2" cy="45" r="1.9"/>
<path id="XMLID_447_" class="st1" d="M192.2,50.5c0,1.1-0.9,1.9-1.9,1.9c-1.1,0-1.9-0.9-1.9-1.9s0.9-1.9,1.9-1.9
	C191.4,48.6,192.2,49.5,192.2,50.5"/>
<circle id="XMLID_446_" class="st2" cx="190.3" cy="50.5" r="1.9"/>
<path id="XMLID_445_" class="st1" d="M191.4,56.5c0,1.1-0.9,1.9-1.9,1.9c-1.1,0-1.9-0.9-1.9-1.9s0.9-1.9,1.9-1.9
	C190.6,54.6,191.4,55.4,191.4,56.5"/>
<circle id="XMLID_444_" class="st2" cx="189.5" cy="56.5" r="1.9"/>
<path id="XMLID_443_" class="st1" d="M191.4,62.1c0,1.1-0.9,1.9-1.9,1.9c-1.1,0-1.9-0.9-1.9-1.9s0.9-1.9,1.9-1.9
	C190.6,60.2,191.4,61.1,191.4,62.1"/>
<circle id="XMLID_442_" class="st2" cx="189.5" cy="62.1" r="1.9"/>
<path id="XMLID_441_" class="st1" d="M192.2,67.8c0,1.1-0.9,1.9-1.9,1.9c-1.1,0-1.9-0.9-1.9-1.9s0.9-1.9,1.9-1.9
	C191.4,65.9,192.2,66.7,192.2,67.8"/>
<circle id="XMLID_440_" class="st2" cx="190.3" cy="67.8" r="1.9"/>
<path id="XMLID_439_" class="st1" d="M193.7,73.4c0,1.1-0.9,1.9-1.9,1.9c-1.1,0-1.9-0.9-1.9-1.9s0.9-1.9,1.9-1.9
	S193.7,72.4,193.7,73.4"/>
<circle id="XMLID_438_" class="st2" cx="191.8" cy="73.4" r="1.9"/>
<path id="XMLID_437_" class="st1" d="M194.7,78.4c0,0.8-0.7,1.5-1.5,1.5s-1.5-0.7-1.5-1.5s0.7-1.5,1.5-1.5
	C194,77,194.7,77.6,194.7,78.4"/>
<circle id="XMLID_436_" class="st2" cx="193.2" cy="78.4" r="1.5"/>
<path id="XMLID_435_" class="st1" d="M196.2,82.5c0,0.7-0.6,1.2-1.2,1.2s-1.2-0.5-1.2-1.2s0.6-1.2,1.2-1.2S196.2,81.9,196.2,82.5"/>
<circle id="XMLID_434_" class="st2" cx="194.9" cy="82.5" r="1.2"/>
<path id="XMLID_433_" class="st1" d="M197.7,85.9c0,0.5-0.4,0.9-0.9,0.9s-0.9-0.4-0.9-0.9s0.4-0.9,0.9-0.9S197.7,85.4,197.7,85.9"/>
<circle id="XMLID_432_" class="st2" cx="196.7" cy="85.9" r="0.9"/>
<path id="XMLID_431_" class="st1" d="M198.6,88.8c0,0.4-0.3,0.7-0.7,0.7s-0.7-0.3-0.7-0.7c0-0.4,0.3-0.7,0.7-0.7
	C198.3,88.1,198.6,88.4,198.6,88.8"/>
<circle id="XMLID_430_" class="st2" cx="197.9" cy="88.8" r="0.7"/>
<path id="XMLID_429_" class="st1" d="M198.6,104.6c0,1.1-0.9,1.9-1.9,1.9c-1.1,0-1.9-0.9-1.9-1.9s0.9-1.9,1.9-1.9
	C197.8,102.7,198.6,103.5,198.6,104.6"/>
<circle id="XMLID_428_" class="st2" cx="196.7" cy="104.6" r="1.9"/>
<path id="XMLID_427_" class="st1" d="M197.4,21.1c0,1.1-0.9,1.9-1.9,1.9c-1.1,0-1.9-0.9-1.9-1.9s0.9-1.9,1.9-1.9
	C196.6,19.2,197.4,20,197.4,21.1"/>
<circle id="XMLID_426_" class="st2" cx="195.5" cy="21.1" r="1.9"/>
<path id="XMLID_425_" class="st1" d="M193.5,106.2c0,1.1-0.9,1.9-1.9,1.9c-1.1,0-1.9-0.9-1.9-1.9s0.9-1.9,1.9-1.9
	C192.6,104.3,193.5,105.2,193.5,106.2"/>
<circle id="XMLID_424_" class="st2" cx="191.6" cy="106.2" r="1.9"/>
<path id="XMLID_423_" class="st1" d="M150.4,57.9c0,1.1-0.9,1.9-1.9,1.9c-1.1,0-1.9-0.9-1.9-1.9s0.9-1.9,1.9-1.9
	S150.4,56.8,150.4,57.9"/>
<circle id="XMLID_422_" class="st2" cx="148.5" cy="57.9" r="1.9"/>
<path id="XMLID_421_" class="st1" d="M156.8,73.4c0,1.1-0.9,1.9-1.9,1.9c-1.1,0-1.9-0.9-1.9-1.9s0.9-1.9,1.9-1.9
	C155.9,71.5,156.8,72.3,156.8,73.4"/>
<circle id="XMLID_420_" class="st2" cx="154.9" cy="73.4" r="1.9"/>
<path id="XMLID_419_" class="st1" d="M158.3,77.9c0,0.9-0.7,1.6-1.6,1.6c-0.9,0-1.6-0.7-1.6-1.6s0.7-1.6,1.6-1.6
	S158.3,77,158.3,77.9"/>
<circle id="XMLID_418_" class="st2" cx="156.8" cy="77.9" r="1.6"/>
<path id="XMLID_417_" class="st1" d="M188.3,107.8c0,1.1-0.9,1.9-1.9,1.9c-1.1,0-1.9-0.9-1.9-1.9s0.9-1.9,1.9-1.9
	C187.4,105.9,188.3,106.7,188.3,107.8"/>
<circle id="XMLID_416_" class="st2" cx="186.4" cy="107.8" r="1.9"/>
<path id="XMLID_415_" class="st0" d="M214.9,34.1c0,0-11.8-22.3,0-22.3"/>
<path id="XMLID_414_" class="st0" d="M210,34.8c0,0-16.6-5.4-10.7-11.1C205.2,18,210,34.8,210,34.8z"/>
<path id="XMLID_413_" class="st0" d="M198.6,97c0,0-9.3-24.7-32.6-29c0,0,10.5,1,11.8,12.7C179.2,92.4,184.6,104.2,198.6,97z"/>
<path id="XMLID_412_" class="st0" d="M184.5,60.2c-4-7.6-14.7-6.4-22.3-5.7c-8.5,0.9-17.8-6.6-17.8-6.6"/>
<path id="XMLID_411_" class="st0" d="M171.7,79.9c0,0,7,13.8-1.2,26"/>
<path id="XMLID_410_" class="st1" d="M157,65.9c0,2.8-2.3,5.1-5.1,5.1s-5.1-2.3-5.1-5.1c0-2.8,2.3-5.1,5.1-5.1
	C154.7,60.8,157,63.1,157,65.9"/>
<circle id="XMLID_409_" class="st2" cx="151.8" cy="65.9" r="5.1"/>
<path id="XMLID_408_" class="st0" d="M160.5,80.6c0,0,10.5,0.6,7.1,18.1"/>
<path id="XMLID_407_" class="st0" d="M167.6,49.9c-0.1-0.3-1.8-9.9,4.9-20.3c0,0,11.1,0.3,19.8,7.7"/>
<path id="XMLID_406_" class="st0" d="M177.4,51.5c0-0.6-3.9-7.5-2.8-17.9c0,0,8.4,5.5,13.4,11.5"/>
<path id="XMLID_405_" class="st1" d="M214.9,5.5c-1,0-1.9,0.9-1.9,1.9s0.8,1.9,1.9,1.9"/>
<path id="XMLID_404_" class="st2" d="M214.9,5.5c-1,0-1.9,0.9-1.9,1.9s0.8,1.9,1.9,1.9"/>
<path id="XMLID_403_" class="st0" d="M179.6,307.1c0,0-3.2,15.3,13.2,18.9s22.3,11.6,22.3,11.6"/>
<path id="XMLID_402_" class="st0" d="M215,314.6c0,0-8.7,15,0,15"/>
<path id="XMLID_401_" class="st0" d="M208.8,314.6c0,0-1.3,10.9-5.5,9.2C199,322,208.8,314.6,208.8,314.6z"/>
<path id="XMLID_400_" class="st0" d="M206.9,336c0,0-32.8,62.5,8.1,62.5"/>
<path id="XMLID_399_" class="st0" d="M215,343.6c0,0-17.4,43.2,0,43.2"/>
<path id="XMLID_398_" class="st0" d="M211.1,339.5c0,0-25.3,53.5,3.9,53.5"/>
<path id="XMLID_397_" class="st1" d="M203.7,334.4c0-1-0.9-1.9-1.9-1.9c-1.1,0-1.9,0.9-1.9,1.9s0.9,1.9,1.9,1.9
	S203.7,335.4,203.7,334.4"/>
<circle id="XMLID_396_" class="st2" cx="201.8" cy="334.4" r="1.9"/>
<path id="XMLID_395_" class="st1" d="M201.8,400.1c0-1-0.9-1.9-1.9-1.9c-1.1,0-1.9,0.9-1.9,1.9c0,1.1,0.9,1.9,1.9,1.9
	C200.9,402,201.8,401.2,201.8,400.1"/>
<circle id="XMLID_394_" class="st2" cx="199.9" cy="400.1" r="1.9"/>
<path id="XMLID_393_" class="st1" d="M197.4,396.5c0-1-0.9-1.9-1.9-1.9c-1.1,0-1.9,0.9-1.9,1.9c0,1.1,0.9,1.9,1.9,1.9
	C196.6,398.4,197.4,397.6,197.4,396.5"/>
<circle id="XMLID_392_" class="st2" cx="195.5" cy="396.5" r="1.9"/>
<path id="XMLID_391_" class="st1" d="M194.3,391.8c0-1.1-0.9-1.9-1.9-1.9c-1.1,0-1.9,0.8-1.9,1.9s0.9,1.9,1.9,1.9
	C193.4,393.7,194.3,392.8,194.3,391.8"/>
<circle id="XMLID_390_" class="st2" cx="192.4" cy="391.8" r="1.9"/>
<path id="XMLID_389_" class="st1" d="M192.4,386.3c0-1-0.9-1.9-1.9-1.9c-1.1,0-1.9,0.9-1.9,1.9c0,1.1,0.9,1.9,1.9,1.9
	C191.5,388.2,192.4,387.4,192.4,386.3"/>
<circle id="XMLID_388_" class="st2" cx="190.5" cy="386.3" r="1.9"/>
<path id="XMLID_387_" class="st1" d="M191.6,380.4c0-1.1-0.9-1.9-1.9-1.9c-1.1,0-1.9,0.9-1.9,1.9s0.9,1.9,1.9,1.9
	C190.7,382.3,191.6,381.4,191.6,380.4"/>
<circle id="XMLID_386_" class="st2" cx="189.7" cy="380.4" r="1.9"/>
<path id="XMLID_385_" class="st1" d="M191.6,374.7c0-1-0.9-1.9-1.9-1.9c-1.1,0-1.9,0.9-1.9,1.9c0,1.1,0.9,1.9,1.9,1.9
	C190.7,376.6,191.6,375.7,191.6,374.7"/>
<circle id="XMLID_384_" class="st2" cx="189.7" cy="374.7" r="1.9"/>
<path id="XMLID_383_" class="st1" d="M192.4,369c0-1.1-0.9-1.9-1.9-1.9c-1.1,0-1.9,0.9-1.9,1.9s0.9,1.9,1.9,1.9
	S192.4,370.1,192.4,369"/>
<circle id="XMLID_382_" class="st2" cx="190.5" cy="369" r="1.9"/>
<path id="XMLID_381_" class="st1" d="M193.8,363.4c0-1-0.9-1.9-1.9-1.9c-1.1,0-1.9,0.9-1.9,1.9c0,1.1,0.9,1.9,1.9,1.9
	C192.9,365.3,193.8,364.4,193.8,363.4"/>
<circle id="XMLID_380_" class="st2" cx="191.9" cy="363.4" r="1.9"/>
<path id="XMLID_379_" class="st1" d="M194.8,358.4c0-0.8-0.7-1.5-1.5-1.5s-1.5,0.7-1.5,1.5s0.7,1.5,1.5,1.5
	C194.2,359.9,194.8,359.2,194.8,358.4"/>
<circle id="XMLID_378_" class="st2" cx="193.4" cy="358.4" r="1.5"/>
<path id="XMLID_377_" class="st1" d="M196.3,354.3c0-0.7-0.6-1.2-1.2-1.2s-1.2,0.5-1.2,1.2s0.6,1.2,1.2,1.2S196.3,355,196.3,354.3"
	/>
<circle id="XMLID_376_" class="st2" cx="195.1" cy="354.3" r="1.2"/>
<path id="XMLID_375_" class="st1" d="M197.8,350.9c0-0.5-0.4-0.9-0.9-0.9s-0.9,0.4-0.9,0.9s0.4,0.9,0.9,0.9
	C197.4,351.8,197.8,351.4,197.8,350.9"/>
<circle id="XMLID_374_" class="st2" cx="196.9" cy="350.9" r="0.9"/>
<path id="XMLID_373_" class="st1" d="M198.8,348.1c0-0.4-0.3-0.7-0.7-0.7s-0.7,0.3-0.7,0.7c0,0.4,0.3,0.7,0.7,0.7
	C198.5,348.8,198.8,348.4,198.8,348.1"/>
<circle id="XMLID_372_" class="st2" cx="198.1" cy="348.1" r="0.7"/>
<path id="XMLID_371_" class="st1" d="M198.8,332.2c0-1-0.9-1.9-1.9-1.9c-1.1,0-1.9,0.9-1.9,1.9c0,1.1,0.9,1.9,1.9,1.9
	C197.9,334.1,198.8,333.3,198.8,332.2"/>
<circle id="XMLID_370_" class="st2" cx="196.9" cy="332.2" r="1.9"/>
<path id="XMLID_369_" class="st1" d="M197.6,415.7c0-1-0.9-1.9-1.9-1.9c-1.1,0-1.9,0.9-1.9,1.9c0,1.1,0.9,1.9,1.9,1.9
	C196.7,417.6,197.6,416.8,197.6,415.7"/>
<circle id="XMLID_368_" class="st2" cx="195.7" cy="415.7" r="1.9"/>
<path id="XMLID_367_" class="st1" d="M193.6,330.6c0-1-0.9-1.9-1.9-1.9c-1.1,0-1.9,0.9-1.9,1.9s0.9,1.9,1.9,1.9
	C192.8,332.5,193.6,331.6,193.6,330.6"/>
<circle id="XMLID_366_" class="st2" cx="191.7" cy="330.6" r="1.9"/>
<path id="XMLID_365_" class="st1" d="M150.5,378.9c0-1.1-0.9-1.9-1.9-1.9c-1.1,0-1.9,0.9-1.9,1.9s0.9,1.9,1.9,1.9
	S150.5,380,150.5,378.9"/>
<circle id="XMLID_364_" class="st2" cx="148.6" cy="378.9" r="1.9"/>
<path id="XMLID_363_" class="st1" d="M156.9,363.5c0-1.1-0.9-1.9-1.9-1.9c-1.1,0-1.9,0.9-1.9,1.9s0.9,1.9,1.9,1.9
	S156.9,364.5,156.9,363.5"/>
<circle id="XMLID_362_" class="st2" cx="155" cy="363.5" r="1.9"/>
<path id="XMLID_361_" class="st1" d="M158.5,358.9c0-0.9-0.7-1.6-1.6-1.6c-0.9,0-1.6,0.7-1.6,1.6s0.7,1.6,1.6,1.6
	S158.5,359.8,158.5,358.9"/>
<circle id="XMLID_360_" class="st2" cx="156.9" cy="358.9" r="1.6"/>
<path id="XMLID_359_" class="st1" d="M188.4,329.1c0-1-0.9-1.9-1.9-1.9c-1.1,0-1.9,0.9-1.9,1.9c0,1.1,0.9,1.9,1.9,1.9
	S188.4,330.1,188.4,329.1"/>
<circle id="XMLID_358_" class="st2" cx="186.5" cy="329.1" r="1.9"/>
<path id="XMLID_357_" class="st0" d="M215.1,402.7c0,0-11.8,22.3,0,22.3"/>
<path id="XMLID_356_" class="st0" d="M210.1,402c0,0-16.6,5.4-10.7,11.1C205.3,418.8,210.1,402,210.1,402z"/>
<path id="XMLID_355_" class="st0" d="M198.8,339.8c0,0-9.3,24.7-32.6,29c0,0,10.5-1,11.8-12.7C179.4,344.4,184.7,332.6,198.8,339.8z
	"/>
<path id="XMLID_354_" class="st0" d="M184.6,376.6c-4,7.6-14.7,6.4-22.3,5.7c-8.5-0.9-17.8,6.6-17.8,6.6"/>
<path id="XMLID_353_" class="st0" d="M171.8,356.9c0,0,7-13.8-1.2-26"/>
<path id="XMLID_352_" class="st1" d="M157.1,370.9c0-2.8-2.3-5.1-5.1-5.1s-5.1,2.3-5.1,5.1s2.3,5.1,5.1,5.1
	C154.8,376.1,157.1,373.8,157.1,370.9"/>
<circle id="XMLID_351_" class="st2" cx="152" cy="370.9" r="5.1"/>
<path id="XMLID_350_" class="st0" d="M160.6,356.2c0,0,10.5-0.6,7.1-18.1"/>
<path id="XMLID_349_" class="st0" d="M167.7,386.9c-0.1,0.3-1.8,9.9,4.9,20.3c0,0,11.1-0.3,19.8-7.7"/>
<path id="XMLID_348_" class="st0" d="M177.5,385.3c0,0.6-3.9,7.5-2.8,17.9c0,0,8.4-5.5,13.4-11.5"/>
<path id="XMLID_347_" class="st1" d="M215.1,427.6c-1,0-1.9,0.9-1.9,1.9"/>
<path id="XMLID_346_" class="st1" d="M213.2,429.5c0,1,0.8,1.9,1.9,1.9"/>
<path id="XMLID_345_" class="st2" d="M215.1,427.6c-1,0-1.9,0.9-1.9,1.9s0.8,1.9,1.9,1.9"/>
<path id="XMLID_344_" class="st0" d="M177.4,306.3c0,0-8.5,13.1-22.7,4c-14.1-9.1-24-7.5-24-7.5"/>
<path id="XMLID_343_" class="st0" d="M147.1,286.5c0,0-4.4,16.8-10.6,10.6"/>
<path id="XMLID_342_" class="st0" d="M151.5,290.9c0,0-6.8,8.6-2.6,10.4C153.1,303.1,151.5,290.9,151.5,290.9z"/>
<path id="XMLID_341_" class="st0" d="M137.7,307.3c0,0-21,67.4-49.9,38.4"/>
<path id="XMLID_340_" class="st0" d="M126.5,307c0,0-18.3,42.9-30.6,30.6"/>
<path id="XMLID_339_" class="st0" d="M132.2,306.9c0,0-20,55.8-40.6,35.1"/>
<path id="XMLID_338_" class="st1" d="M141.1,308.5c0.7-0.7,1.9-0.7,2.7,0c0.7,0.7,0.7,1.9,0,2.7c-0.7,0.7-1.9,0.7-2.7,0
	C140.4,310.5,140.4,309.3,141.1,308.5"/>
<circle id="XMLID_337_" class="st2" cx="142.5" cy="309.9" r="1.9"/>
<path id="XMLID_336_" class="st1" d="M96,356.4c0.7-0.7,1.9-0.7,2.7,0c0.7,0.7,0.7,1.9,0,2.7c-0.7,0.7-1.9,0.7-2.7,0
	C95.2,358.3,95.2,357.1,96,356.4"/>
<circle id="XMLID_335_" class="st2" cx="97.3" cy="357.7" r="1.9"/>
<path id="XMLID_334_" class="st1" d="M101.6,356.9c0.7-0.7,1.9-0.7,2.7,0c0.7,0.7,0.7,1.9,0,2.7c-0.7,0.7-1.9,0.7-2.7,0
	C100.8,358.8,100.8,357.6,101.6,356.9"/>
<circle id="XMLID_333_" class="st2" cx="102.9" cy="358.2" r="1.9"/>
<path id="XMLID_332_" class="st1" d="M107.1,355.8c0.7-0.7,1.9-0.7,2.7,0c0.7,0.7,0.7,1.9,0,2.7c-0.7,0.7-1.9,0.7-2.7,0
	C106.4,357.7,106.4,356.5,107.1,355.8"/>
<circle id="XMLID_331_" class="st2" cx="108.5" cy="357.1" r="1.9"/>
<path id="XMLID_330_" class="st1" d="M112.4,353.2c0.7-0.7,1.9-0.7,2.7,0c0.7,0.7,0.7,1.9,0,2.7c-0.7,0.7-1.9,0.7-2.7,0
	C111.6,355.2,111.6,354,112.4,353.2"/>
<circle id="XMLID_329_" class="st2" cx="113.7" cy="354.6" r="1.9"/>
<path id="XMLID_328_" class="st1" d="M117.1,349.6c0.7-0.7,1.9-0.7,2.7,0c0.7,0.7,0.7,1.9,0,2.7c-0.7,0.7-1.9,0.7-2.7,0
	C116.4,351.5,116.4,350.3,117.1,349.6"/>
<circle id="XMLID_327_" class="st2" cx="118.5" cy="350.9" r="1.9"/>
<path id="XMLID_326_" class="st1" d="M121.2,345.6c0.7-0.7,1.9-0.7,2.7,0c0.7,0.7,0.7,1.9,0,2.7c-0.7,0.7-1.9,0.7-2.7,0
	C120.4,347.5,120.4,346.3,121.2,345.6"/>
<circle id="XMLID_325_" class="st2" cx="122.5" cy="346.9" r="1.9"/>
<path id="XMLID_324_" class="st1" d="M124.6,341c0.7-0.7,1.9-0.7,2.7,0c0.7,0.7,0.7,1.9,0,2.7c-0.7,0.7-1.9,0.7-2.7,0
	S123.8,341.8,124.6,341"/>
<circle id="XMLID_323_" class="st2" cx="125.9" cy="342.4" r="1.9"/>
<path id="XMLID_322_" class="st1" d="M127.6,336c0.7-0.7,1.9-0.7,2.7,0c0.7,0.7,0.7,1.9,0,2.7c-0.7,0.7-1.9,0.7-2.7,0
	C126.8,337.9,126.8,336.7,127.6,336"/>
<circle id="XMLID_321_" class="st2" cx="128.9" cy="337.3" r="1.9"/>
<path id="XMLID_320_" class="st1" d="M130.4,331.7c0.6-0.6,1.5-0.6,2.1,0s0.6,1.5,0,2.1s-1.5,0.6-2.1,0
	C129.8,333.2,129.8,332.3,130.4,331.7"/>
<circle id="XMLID_319_" class="st2" cx="131.4" cy="332.8" r="1.5"/>
<path id="XMLID_318_" class="st1" d="M132.2,327.8c0.5-0.5,1.3-0.5,1.7,0c0.5,0.5,0.5,1.3,0,1.7c-0.5,0.5-1.3,0.5-1.7,0
	S131.8,328.3,132.2,327.8"/>
<circle id="XMLID_317_" class="st2" cx="133.1" cy="328.7" r="1.2"/>
<path id="XMLID_316_" class="st1" d="M133.6,324.3c0.4-0.4,1-0.4,1.3,0c0.4,0.4,0.4,1,0,1.3c-0.4,0.4-1,0.4-1.3,0
	C133.2,325.3,133.2,324.7,133.6,324.3"/>
<circle id="XMLID_315_" class="st2" cx="134.2" cy="325" r="0.9"/>
<path id="XMLID_314_" class="st1" d="M134.9,321.7c0.3-0.3,0.7-0.3,1,0s0.3,0.7,0,1s-0.7,0.3-1,0
	C134.6,322.4,134.6,321.9,134.9,321.7"/>
<circle id="XMLID_313_" class="st2" cx="135.4" cy="322.1" r="0.7"/>
<path id="XMLID_312_" class="st1" d="M146.1,310.5c0.7-0.7,1.9-0.7,2.7,0c0.7,0.7,0.7,1.9,0,2.7c-0.7,0.7-1.9,0.7-2.7,0
	C145.3,312.4,145.3,311.2,146.1,310.5"/>
<circle id="XMLID_311_" class="st2" cx="147.4" cy="311.8" r="1.9"/>
<path id="XMLID_310_" class="st1" d="M87.9,370.4c0.7-0.7,1.9-0.7,2.7,0c0.7,0.7,0.7,1.9,0,2.7c-0.7,0.7-1.9,0.7-2.7,0
	C87.2,372.3,87.2,371.1,87.9,370.4"/>
<circle id="XMLID_309_" class="st2" cx="89.2" cy="371.7" r="1.9"/>
<path id="XMLID_308_" class="st1" d="M150.9,312.9c0.7-0.7,1.9-0.7,2.7,0c0.7,0.7,0.7,1.9,0,2.7c-0.7,0.7-1.9,0.7-2.7,0
	C150.2,314.9,150.2,313.7,150.9,312.9"/>
<circle id="XMLID_307_" class="st2" cx="152.2" cy="314.3" r="1.9"/>
<path id="XMLID_306_" class="st1" d="M147.2,377.6c0.7-0.7,1.9-0.7,2.7,0c0.7,0.7,0.7,1.9,0,2.7c-0.7,0.7-1.9,0.7-2.7,0
	C146.5,379.6,146.5,378.4,147.2,377.6"/>
<circle id="XMLID_305_" class="st2" cx="148.5" cy="379" r="1.9"/>
<path id="XMLID_304_" class="st1" d="M153.6,362.2c0.7-0.7,1.9-0.7,2.7,0c0.7,0.7,0.7,1.9,0,2.7c-0.7,0.7-1.9,0.7-2.7,0
	C152.9,364.1,152.9,362.9,153.6,362.2"/>
<circle id="XMLID_303_" class="st2" cx="155" cy="363.5" r="1.9"/>
<path id="XMLID_302_" class="st1" d="M155.7,357.8c0.6-0.6,1.6-0.6,2.3,0c0.6,0.6,0.6,1.6,0,2.3c-0.6,0.6-1.6,0.6-2.3,0
	C155.1,359.4,155.1,358.4,155.7,357.8"/>
<circle id="XMLID_301_" class="st2" cx="156.8" cy="358.9" r="1.6"/>
<path id="XMLID_300_" class="st1" d="M155.7,315.6c0.7-0.7,1.9-0.7,2.7,0c0.7,0.7,0.7,1.9,0,2.7c-0.7,0.7-1.9,0.7-2.7,0
	C154.9,317.5,154.9,316.3,155.7,315.6"/>
<circle id="XMLID_299_" class="st2" cx="157" cy="316.9" r="1.9"/>
<path id="XMLID_298_" class="st0" d="M84.7,348.8c0,0-7.4,24.1-15.8,15.8"/>
<path id="XMLID_297_" class="st0" d="M88.7,351.8c0,0,7.9,15.6-0.3,15.4C80.2,367.1,88.7,351.8,88.7,351.8z"/>
<path id="XMLID_296_" class="st0" d="M140.7,315.8c0,0-10.9,24,2.6,43.6c0,0-6.7-8.1,0.6-17.4C151.2,332.8,155.8,320.6,140.7,315.8z
	"/>
<path id="XMLID_295_" class="st0" d="M124.7,351.9c-2.5,8.2,5.9,15,11.8,19.8c6.6,5.4,7.9,17.2,7.9,17.2"/>
<path id="XMLID_294_" class="st0" d="M147.7,347c0,0,4.8-14.7,19.2-17.5"/>
<path id="XMLID_293_" class="st1" d="M148.2,367.3c2-2,5.3-2,7.3,0s2,5.3,0,7.3s-5.3,2-7.3,0C146.2,372.6,146.2,369.3,148.2,367.3"
	/>
<circle id="XMLID_292_" class="st2" cx="151.8" cy="370.9" r="5.1"/>
<path id="XMLID_291_" class="st0" d="M156.1,354.4c0,0-7-7.9,7.8-17.8"/>
<path id="XMLID_290_" class="st0" d="M129.4,371.1c-0.2,0.3-5.7,8.3-17.8,10.9c0,0-7.6-8.1-8.5-19.4"/>
<path id="XMLID_289_" class="st0" d="M123.6,363.1c-0.4,0.4-2.5,8.1-10.7,14.7c0,0-2.1-9.8-1.3-17.6"/>
<path id="XMLID_288_" class="st0" d="M127.2,256.1c0,0-13.1,8.5-4,22.7s7.5,24,7.5,24"/>
<path id="XMLID_287_" class="st0" d="M147,286.4c0,0-16.8,4.4-10.6,10.6"/>
<path id="XMLID_286_" class="st0" d="M142.6,282c0,0-8.6,6.8-10.4,2.6C130.4,280.4,142.6,282,142.6,282z"/>
<path id="XMLID_285_" class="st0" d="M126.2,295.8c0,0-67.4,21-38.4,49.9"/>
<path id="XMLID_284_" class="st0" d="M126.5,307c0,0-42.9,18.3-30.6,30.6"/>
<path id="XMLID_283_" class="st0" d="M126.6,301.3c0,0-55.8,20-35.1,40.6"/>
<path id="XMLID_282_" class="st1" d="M125,292.4c0.7-0.7,0.7-1.9,0-2.7c-0.7-0.7-1.9-0.7-2.7,0c-0.7,0.7-0.7,1.9,0,2.7
	C123,293.1,124.2,293.1,125,292.4"/>
<circle id="XMLID_281_" class="st2" cx="123.6" cy="291.1" r="1.9"/>
<path id="XMLID_280_" class="st1" d="M77.1,337.5c0.7-0.7,0.7-1.9,0-2.7c-0.7-0.7-1.9-0.7-2.7,0c-0.7,0.7-0.7,1.9,0,2.7
	C75.2,338.3,76.4,338.3,77.1,337.5"/>
<circle id="XMLID_279_" class="st2" cx="75.8" cy="336.2" r="1.9"/>
<path id="XMLID_278_" class="st1" d="M76.6,331.9c0.7-0.7,0.7-1.9,0-2.7c-0.7-0.7-1.9-0.7-2.7,0c-0.7,0.7-0.7,1.9,0,2.7
	C74.7,332.7,75.9,332.7,76.6,331.9"/>
<circle id="XMLID_277_" class="st2" cx="75.3" cy="330.6" r="1.9"/>
<path id="XMLID_276_" class="st1" d="M77.7,326.4c0.7-0.7,0.7-1.9,0-2.7c-0.7-0.7-1.9-0.7-2.7,0c-0.7,0.7-0.7,1.9,0,2.7
	C75.8,327.1,77,327.1,77.7,326.4"/>
<circle id="XMLID_275_" class="st2" cx="76.4" cy="325" r="1.9"/>
<path id="XMLID_274_" class="st1" d="M80.3,321.1c0.7-0.7,0.7-1.9,0-2.7c-0.7-0.7-1.9-0.7-2.7,0c-0.7,0.7-0.7,1.9,0,2.7
	C78.3,321.9,79.5,321.9,80.3,321.1"/>
<circle id="XMLID_273_" class="st2" cx="78.9" cy="319.8" r="1.9"/>
<path id="XMLID_272_" class="st1" d="M83.9,316.4c0.7-0.7,0.7-1.9,0-2.7c-0.7-0.7-1.9-0.7-2.7,0c-0.7,0.7-0.7,1.9,0,2.7
	C82,317.1,83.2,317.1,83.9,316.4"/>
<circle id="XMLID_271_" class="st2" cx="82.6" cy="315" r="1.9"/>
<path id="XMLID_270_" class="st1" d="M87.9,312.3c0.7-0.7,0.7-1.9,0-2.7c-0.7-0.7-1.9-0.7-2.7,0c-0.7,0.7-0.7,1.9,0,2.7
	C86,313.1,87.2,313.1,87.9,312.3"/>
<circle id="XMLID_269_" class="st2" cx="86.6" cy="311" r="1.9"/>
<path id="XMLID_268_" class="st1" d="M92.5,308.9c0.7-0.7,0.7-1.9,0-2.7c-0.7-0.7-1.9-0.7-2.7,0c-0.7,0.7-0.7,1.9,0,2.7
	S91.7,309.7,92.5,308.9"/>
<circle id="XMLID_267_" class="st2" cx="91.1" cy="307.6" r="1.9"/>
<path id="XMLID_266_" class="st1" d="M97.5,305.9c0.7-0.7,0.7-1.9,0-2.7c-0.7-0.7-1.9-0.7-2.7,0c-0.7,0.7-0.7,1.9,0,2.7
	C95.6,306.7,96.8,306.7,97.5,305.9"/>
<circle id="XMLID_265_" class="st2" cx="96.2" cy="304.6" r="1.9"/>
<path id="XMLID_264_" class="st1" d="M101.8,303.1c0.6-0.6,0.6-1.5,0-2.1s-1.5-0.6-2.1,0s-0.6,1.5,0,2.1S101.2,303.7,101.8,303.1"/>
<circle id="XMLID_263_" class="st2" cx="100.7" cy="302.1" r="1.5"/>
<path id="XMLID_262_" class="st1" d="M105.7,301.3c0.5-0.5,0.5-1.3,0-1.7c-0.5-0.5-1.3-0.5-1.7,0c-0.5,0.5-0.5,1.3,0,1.7
	S105.2,301.7,105.7,301.3"/>
<circle id="XMLID_261_" class="st2" cx="104.8" cy="300.4" r="1.2"/>
<path id="XMLID_260_" class="st1" d="M109.2,299.9c0.4-0.4,0.4-1,0-1.3c-0.4-0.4-1-0.4-1.3,0s-0.4,1,0,1.3S108.8,300.3,109.2,299.9"
	/>
<circle id="XMLID_259_" class="st2" cx="108.5" cy="299.3" r="0.9"/>
<path id="XMLID_258_" class="st1" d="M111.8,298.6c0.3-0.3,0.3-0.7,0-1s-0.7-0.3-1,0s-0.3,0.7,0,1
	C111.1,298.9,111.6,298.9,111.8,298.6"/>
<circle id="XMLID_257_" class="st2" cx="111.4" cy="298.1" r="0.7"/>
<path id="XMLID_256_" class="st1" d="M123,287.4c0.7-0.7,0.7-1.9,0-2.7c-0.7-0.7-1.9-0.7-2.7,0c-0.7,0.7-0.7,1.9,0,2.7
	C121.1,288.2,122.3,288.2,123,287.4"/>
<circle id="XMLID_255_" class="st2" cx="121.7" cy="286.1" r="1.9"/>
<path id="XMLID_254_" class="st1" d="M63.1,345.6c0.7-0.7,0.7-1.9,0-2.7c-0.7-0.7-1.9-0.7-2.7,0c-0.7,0.7-0.7,1.9,0,2.7
	C61.2,346.3,62.4,346.3,63.1,345.6"/>
<circle id="XMLID_253_" class="st2" cx="61.8" cy="344.3" r="1.9"/>
<path id="XMLID_252_" class="st1" d="M120.6,282.6c0.7-0.7,0.7-1.9,0-2.7c-0.7-0.7-1.9-0.7-2.7,0c-0.7,0.7-0.7,1.9,0,2.7
	C118.6,283.3,119.8,283.3,120.6,282.6"/>
<circle id="XMLID_251_" class="st2" cx="119.2" cy="281.3" r="1.9"/>
<path id="XMLID_250_" class="st1" d="M55.9,286.3c0.7-0.7,0.7-1.9,0-2.7c-0.7-0.7-1.9-0.7-2.7,0c-0.7,0.7-0.7,1.9,0,2.7
	C53.9,287,55.1,287,55.9,286.3"/>
<circle id="XMLID_249_" class="st2" cx="54.5" cy="285" r="1.9"/>
<path id="XMLID_248_" class="st1" d="M71.3,279.9c0.7-0.7,0.7-1.9,0-2.7c-0.7-0.7-1.9-0.7-2.7,0c-0.7,0.7-0.7,1.9,0,2.7
	C69.4,280.6,70.6,280.6,71.3,279.9"/>
<circle id="XMLID_247_" class="st2" cx="70" cy="278.5" r="1.9"/>
<path id="XMLID_246_" class="st1" d="M75.7,277.8c0.6-0.6,0.6-1.6,0-2.3c-0.6-0.6-1.6-0.6-2.3,0c-0.6,0.6-0.6,1.6,0,2.3
	C74.1,278.4,75.1,278.4,75.7,277.8"/>
<circle id="XMLID_245_" class="st2" cx="74.6" cy="276.7" r="1.6"/>
<path id="XMLID_244_" class="st1" d="M117.9,277.8c0.7-0.7,0.7-1.9,0-2.7c-0.7-0.7-1.9-0.7-2.7,0c-0.7,0.7-0.7,1.9,0,2.7
	C116,278.6,117.2,278.6,117.9,277.8"/>
<circle id="XMLID_243_" class="st2" cx="116.6" cy="276.5" r="1.9"/>
<path id="XMLID_242_" class="st0" d="M84.7,348.8c0,0-24.1,7.4-15.8,15.8"/>
<path id="XMLID_241_" class="st0" d="M81.7,344.8c0,0-15.6-7.9-15.4,0.3C66.4,353.3,81.7,344.8,81.7,344.8z"/>
<path id="XMLID_240_" class="st0" d="M117.7,292.8c0,0-24,10.9-43.6-2.6c0,0,8.1,6.7,17.4-0.6C100.7,282.3,112.9,277.7,117.7,292.8z
	"/>
<path id="XMLID_239_" class="st0" d="M81.6,308.8c-8.2,2.5-15-5.9-19.8-11.8c-5.4-6.6-17.2-7.9-17.2-7.9"/>
<path id="XMLID_238_" class="st0" d="M86.5,285.8c0,0,14.7-4.8,17.5-19.2"/>
<path id="XMLID_237_" class="st1" d="M66.2,285.3c2-2,2-5.3,0-7.3s-5.3-2-7.3,0s-2,5.3,0,7.3C60.9,287.3,64.2,287.3,66.2,285.3"/>
<circle id="XMLID_236_" class="st2" cx="62.6" cy="281.7" r="5.1"/>
<path id="XMLID_235_" class="st0" d="M79.1,277.4c0,0,7.9,7,17.8-7.8"/>
<path id="XMLID_234_" class="st0" d="M62.4,304.1c-0.3,0.2-8.3,5.7-10.9,17.8c0,0,8.1,7.6,19.4,8.5"/>
<path id="XMLID_233_" class="st0" d="M70.4,309.9c-0.4,0.4-8.1,2.5-14.7,10.7c0,0,9.8,2.1,17.6,1.3"/>
<path id="XMLID_232_" class="st1" d="M64.5,366.3c-0.7,0.7-0.7,1.9,0,2.7l0,0l0,0c0.7,0.7,1.9,0.7,2.7,0c0.7-0.7,0.7-1.9,0-2.7l0,0
	l0,0C66.4,365.6,65.2,365.6,64.5,366.3"/>
<path id="XMLID_231_" class="st2" d="M64.5,366.3c-0.7,0.7-0.7,1.9,0,2.7l0,0l0,0c0.7,0.7,1.9,0.7,2.7,0c0.7-0.7,0.7-1.9,0-2.7l0,0
	l0,0C66.4,365.6,65.2,365.6,64.5,366.3z"/>
<path id="XMLID_230_" class="st0" d="M126.3,254c0,0-15.3,3.2-18.9-13.2s-11.6-22.3-11.6-22.3"/>
<path id="XMLID_229_" class="st0" d="M118.8,218.5c0,0-15,8.7-15,0"/>
<path id="XMLID_228_" class="st0" d="M118.8,224.8c0,0-10.9,1.3-9.2,5.5C111.4,234.5,118.8,224.8,118.8,224.8z"/>
<path id="XMLID_227_" class="st0" d="M97.4,226.6c0,0-62.5,32.8-62.5-8.1"/>
<path id="XMLID_226_" class="st0" d="M89.8,218.5c0,0-43.2,17.4-43.2,0"/>
<path id="XMLID_225_" class="st0" d="M93.9,222.4c0,0-53.5,25.3-53.5-3.9"/>
<path id="XMLID_224_" class="st1" d="M99,229.9c1,0,1.9,0.9,1.9,1.9c0,1.1-0.9,1.9-1.9,1.9c-1.1,0-1.9-0.9-1.9-1.9
	C97.1,230.7,98,229.9,99,229.9"/>
<circle id="XMLID_223_" class="st2" cx="99" cy="231.8" r="1.9"/>
<path id="XMLID_222_" class="st1" d="M33.3,231.8c1,0,1.9,0.9,1.9,1.9c0,1.1-0.9,1.9-1.9,1.9c-1.1,0-1.9-0.9-1.9-1.9
	C31.4,232.6,32.2,231.8,33.3,231.8"/>
<circle id="XMLID_221_" class="st2" cx="33.3" cy="233.7" r="1.9"/>
<path id="XMLID_220_" class="st1" d="M36.9,236.1c1,0,1.9,0.9,1.9,1.9c0,1.1-0.9,1.9-1.9,1.9c-1.1,0-1.9-0.9-1.9-1.9
	S35.8,236.1,36.9,236.1"/>
<circle id="XMLID_219_" class="st2" cx="36.9" cy="238" r="1.9"/>
<path id="XMLID_218_" class="st1" d="M41.6,239.3c1,0,1.9,0.9,1.9,1.9c0,1.1-0.9,1.9-1.9,1.9c-1.1,0-1.9-0.9-1.9-1.9
	C39.7,240.1,40.6,239.3,41.6,239.3"/>
<circle id="XMLID_217_" class="st2" cx="41.6" cy="241.2" r="1.9"/>
<path id="XMLID_216_" class="st1" d="M47.1,241.2c1,0,1.9,0.9,1.9,1.9c0,1.1-0.9,1.9-1.9,1.9c-1.1,0-1.9-0.9-1.9-1.9
	C45.2,242,46.1,241.2,47.1,241.2"/>
<circle id="XMLID_215_" class="st2" cx="47.1" cy="243.1" r="1.9"/>
<path id="XMLID_214_" class="st1" d="M53.1,242c1,0,1.9,0.9,1.9,1.9c0,1.1-0.9,1.9-1.9,1.9c-1.1,0-1.9-0.9-1.9-1.9
	C51.1,242.8,52,242,53.1,242"/>
<circle id="XMLID_213_" class="st2" cx="53.1" cy="243.9" r="1.9"/>
<path id="XMLID_212_" class="st1" d="M58.7,242c1,0,1.9,0.9,1.9,1.9c0,1.1-0.9,1.9-1.9,1.9c-1.1,0-1.9-0.9-1.9-1.9
	C56.8,242.8,57.7,242,58.7,242"/>
<circle id="XMLID_211_" class="st2" cx="58.7" cy="243.9" r="1.9"/>
<path id="XMLID_210_" class="st1" d="M64.4,241.2c1,0,1.9,0.9,1.9,1.9c0,1.1-0.9,1.9-1.9,1.9c-1.1,0-1.9-0.9-1.9-1.9
	C62.5,242,63.3,241.2,64.4,241.2"/>
<circle id="XMLID_209_" class="st2" cx="64.4" cy="243.1" r="1.9"/>
<path id="XMLID_208_" class="st1" d="M70,239.7c1,0,1.9,0.9,1.9,1.9c0,1.1-0.9,1.9-1.9,1.9c-1.1,0-1.9-0.9-1.9-1.9
	C68.1,240.6,69,239.7,70,239.7"/>
<circle id="XMLID_207_" class="st2" cx="70" cy="241.6" r="1.9"/>
<path id="XMLID_206_" class="st1" d="M75,238.7c0.8,0,1.5,0.7,1.5,1.5s-0.7,1.5-1.5,1.5s-1.5-0.7-1.5-1.5S74.2,238.7,75,238.7"/>
<circle id="XMLID_205_" class="st2" cx="75" cy="240.2" r="1.5"/>
<path id="XMLID_204_" class="st1" d="M79.1,237.2c0.7,0,1.2,0.6,1.2,1.2c0,0.7-0.6,1.2-1.2,1.2c-0.7,0-1.2-0.6-1.2-1.2
	S78.5,237.2,79.1,237.2"/>
<circle id="XMLID_203_" class="st2" cx="79.1" cy="238.5" r="1.2"/>
<path id="XMLID_202_" class="st1" d="M82.5,235.7c0.5,0,0.9,0.4,0.9,0.9s-0.4,0.9-0.9,0.9s-0.9-0.4-0.9-0.9
	C81.6,236.2,82,235.7,82.5,235.7"/>
<circle id="XMLID_201_" class="st2" cx="82.5" cy="236.7" r="0.9"/>
<path id="XMLID_200_" class="st1" d="M85.3,234.8c0.4,0,0.7,0.3,0.7,0.7s-0.3,0.7-0.7,0.7c-0.4,0-0.7-0.3-0.7-0.7
	C84.7,235.1,85,234.8,85.3,234.8"/>
<circle id="XMLID_199_" class="st2" cx="85.3" cy="235.5" r="0.7"/>
<path id="XMLID_198_" class="st1" d="M101.2,234.8c1,0,1.9,0.9,1.9,1.9c0,1.1-0.9,1.9-1.9,1.9c-1.1,0-1.9-0.9-1.9-1.9
	C99.3,235.6,100.1,234.8,101.2,234.8"/>
<circle id="XMLID_197_" class="st2" cx="101.2" cy="236.7" r="1.9"/>
<path id="XMLID_196_" class="st1" d="M17.7,236c1,0,1.9,0.9,1.9,1.9c0,1.1-0.9,1.9-1.9,1.9s-1.9-0.9-1.9-1.9
	C15.8,236.8,16.6,236,17.7,236"/>
<circle id="XMLID_195_" class="st2" cx="17.7" cy="237.9" r="1.9"/>
<path id="XMLID_194_" class="st1" d="M102.8,239.9c1,0,1.9,0.9,1.9,1.9c0,1.1-0.9,1.9-1.9,1.9c-1.1,0-1.9-0.9-1.9-1.9
	C100.9,240.8,101.8,239.9,102.8,239.9"/>
<circle id="XMLID_193_" class="st2" cx="102.8" cy="241.8" r="1.9"/>
<path id="XMLID_192_" class="st1" d="M54.5,283c1,0,1.9,0.9,1.9,1.9s-0.9,1.9-1.9,1.9c-1.1,0-1.9-0.9-1.9-1.9S53.4,283,54.5,283"/>
<circle id="XMLID_191_" class="st2" cx="54.5" cy="284.9" r="1.9"/>
<path id="XMLID_190_" class="st1" d="M69.9,276.7c1,0,1.9,0.9,1.9,1.9c0,1.1-0.9,1.9-1.9,1.9c-1.1,0-1.9-0.9-1.9-1.9
	C68,277.5,68.9,276.7,69.9,276.7"/>
<circle id="XMLID_189_" class="st2" cx="69.9" cy="278.6" r="1.9"/>
<path id="XMLID_188_" class="st1" d="M74.5,275.1c0.9,0,1.6,0.7,1.6,1.6s-0.7,1.6-1.6,1.6s-1.6-0.7-1.6-1.6
	C72.9,275.8,73.6,275.1,74.5,275.1"/>
<circle id="XMLID_187_" class="st2" cx="74.5" cy="276.7" r="1.6"/>
<path id="XMLID_186_" class="st1" d="M104.3,245.1c1,0,1.9,0.9,1.9,1.9c0,1.1-0.9,1.9-1.9,1.9c-1.1,0-1.9-0.9-1.9-1.9
	S103.3,245.1,104.3,245.1"/>
<circle id="XMLID_185_" class="st2" cx="104.3" cy="247" r="1.9"/>
<path id="XMLID_184_" class="st0" d="M30.7,218.5c0,0-22.3,11.8-22.3,0"/>
<path id="XMLID_183_" class="st0" d="M31.4,223.4c0,0-5.4,16.6-11.1,10.7C14.6,228.2,31.4,223.4,31.4,223.4z"/>
<path id="XMLID_182_" class="st0" d="M93.6,234.8c0,0-24.7,9.3-29,32.6c0,0,1-10.5,12.7-11.8C89,254.2,100.8,248.8,93.6,234.8z"/>
<path id="XMLID_181_" class="st0" d="M56.8,248.9c-7.6,4-6.4,14.7-5.7,22.3c0.9,8.5-6.6,17.8-6.6,17.8"/>
<path id="XMLID_180_" class="st0" d="M76.5,261.7c0,0,13.8-7,26,1.2"/>
<path id="XMLID_179_" class="st1" d="M62.5,276.4c2.8,0,5.1,2.3,5.1,5.1c0,2.8-2.3,5.1-5.1,5.1s-5.1-2.3-5.1-5.1
	C57.3,278.7,59.6,276.4,62.5,276.4"/>
<circle id="XMLID_178_" class="st2" cx="62.5" cy="281.6" r="5.1"/>
<path id="XMLID_177_" class="st0" d="M77.2,272.9c0,0,0.6-10.5,18.1-7.1"/>
<path id="XMLID_176_" class="st0" d="M46.5,265.8c-0.3,0.1-9.9,1.8-20.3-4.9c0,0,0.3-11.1,7.7-19.8"/>
<path id="XMLID_175_" class="st0" d="M48.1,256c-0.6,0-7.5,3.9-17.9,2.8c0,0,5.5-8.4,11.5-13.4"/>
<path id="XMLID_174_" class="st0" d="M126.3,183c0,0-15.3-3.2-18.9,13.2s-11.6,22.3-11.6,22.3"/>
<path id="XMLID_173_" class="st0" d="M118.8,218.4c0,0-15-8.7-15,0"/>
<path id="XMLID_172_" class="st0" d="M118.8,212.2c0,0-10.9-1.3-9.2-5.5C111.4,202.4,118.8,212.2,118.8,212.2z"/>
<path id="XMLID_171_" class="st0" d="M97.4,210.3c0,0-62.5-32.8-62.5,8.1"/>
<path id="XMLID_170_" class="st0" d="M89.8,218.4c0,0-43.2-17.4-43.2,0"/>
<path id="XMLID_169_" class="st0" d="M93.9,214.6c0,0-53.5-25.3-53.5,3.9"/>
<path id="XMLID_168_" class="st1" d="M99,207.1c1,0,1.9-0.9,1.9-1.9c0-1.1-0.9-1.9-1.9-1.9c-1.1,0-1.9,0.9-1.9,1.9
	C97.1,206.2,98,207.1,99,207.1"/>
<circle id="XMLID_167_" class="st2" cx="99" cy="205.2" r="1.9"/>
<path id="XMLID_166_" class="st1" d="M33.3,205.2c1,0,1.9-0.9,1.9-1.9c0-1.1-0.9-1.9-1.9-1.9c-1.1,0-1.9,0.9-1.9,1.9
	S32.2,205.2,33.3,205.2"/>
<circle id="XMLID_165_" class="st2" cx="33.3" cy="203.3" r="1.9"/>
<path id="XMLID_164_" class="st1" d="M36.9,200.8c1,0,1.9-0.9,1.9-1.9c0-1.1-0.9-1.9-1.9-1.9c-1.1,0-1.9,0.9-1.9,1.9
	C35,200,35.8,200.8,36.9,200.8"/>
<circle id="XMLID_163_" class="st2" cx="36.9" cy="198.9" r="1.9"/>
<path id="XMLID_162_" class="st1" d="M41.6,197.7c1,0,1.9-0.9,1.9-1.9c0-1.1-0.9-1.9-1.9-1.9c-1.1,0-1.9,0.9-1.9,1.9
	C39.7,196.8,40.6,197.7,41.6,197.7"/>
<circle id="XMLID_161_" class="st2" cx="41.6" cy="195.8" r="1.9"/>
<path id="XMLID_160_" class="st1" d="M47.1,195.8c1,0,1.9-0.9,1.9-1.9c0-1.1-0.9-1.9-1.9-1.9c-1.1,0-1.9,0.9-1.9,1.9
	C45.2,194.9,46.1,195.8,47.1,195.8"/>
<circle id="XMLID_159_" class="st2" cx="47.1" cy="193.9" r="1.9"/>
<path id="XMLID_158_" class="st1" d="M53.1,195c1,0,1.9-0.9,1.9-1.9c0-1.1-0.9-1.9-1.9-1.9c-1.1,0-1.9,0.9-1.9,1.9
	C51.1,194.1,52,195,53.1,195"/>
<circle id="XMLID_157_" class="st2" cx="53.1" cy="193.1" r="1.9"/>
<path id="XMLID_156_" class="st1" d="M58.7,195c1,0,1.9-0.9,1.9-1.9c0-1.1-0.9-1.9-1.9-1.9c-1.1,0-1.9,0.9-1.9,1.9
	S57.7,195,58.7,195"/>
<circle id="XMLID_155_" class="st2" cx="58.7" cy="193.1" r="1.9"/>
<path id="XMLID_154_" class="st1" d="M64.4,195.8c1,0,1.9-0.9,1.9-1.9c0-1.1-0.9-1.9-1.9-1.9c-1.1,0-1.9,0.9-1.9,1.9
	C62.5,194.9,63.3,195.8,64.4,195.8"/>
<circle id="XMLID_153_" class="st2" cx="64.4" cy="193.9" r="1.9"/>
<path id="XMLID_152_" class="st1" d="M70,197.2c1,0,1.9-0.9,1.9-1.9c0-1.1-0.9-1.9-1.9-1.9c-1.1,0-1.9,0.9-1.9,1.9
	C68.1,196.4,69,197.2,70,197.2"/>
<circle id="XMLID_151_" class="st2" cx="70" cy="195.3" r="1.9"/>
<path id="XMLID_150_" class="st1" d="M75,198.2c0.8,0,1.5-0.7,1.5-1.5s-0.7-1.5-1.5-1.5s-1.5,0.7-1.5,1.5
	C73.5,197.6,74.2,198.2,75,198.2"/>
<circle id="XMLID_149_" class="st2" cx="75" cy="196.8" r="1.5"/>
<path id="XMLID_148_" class="st1" d="M79.1,199.7c0.7,0,1.2-0.5,1.2-1.2s-0.6-1.2-1.2-1.2c-0.7,0-1.2,0.6-1.2,1.2
	S78.5,199.7,79.1,199.7"/>
<circle id="XMLID_147_" class="st2" cx="79.1" cy="198.5" r="1.2"/>
<path id="XMLID_146_" class="st1" d="M82.5,201.2c0.5,0,0.9-0.4,0.9-0.9s-0.4-0.9-0.9-0.9s-0.9,0.4-0.9,0.9S82,201.2,82.5,201.2"/>
<circle id="XMLID_145_" class="st2" cx="82.5" cy="200.3" r="0.9"/>
<path id="XMLID_144_" class="st1" d="M85.3,202.2c0.4,0,0.7-0.3,0.7-0.7s-0.3-0.7-0.7-0.7c-0.4,0-0.7,0.3-0.7,0.7
	C84.7,201.9,85,202.2,85.3,202.2"/>
<circle id="XMLID_143_" class="st2" cx="85.3" cy="201.5" r="0.7"/>
<path id="XMLID_142_" class="st1" d="M101.2,202.2c1,0,1.9-0.9,1.9-1.9c0-1.1-0.9-1.9-1.9-1.9c-1.1,0-1.9,0.9-1.9,1.9
	C99.3,201.3,100.1,202.2,101.2,202.2"/>
<circle id="XMLID_141_" class="st2" cx="101.2" cy="200.3" r="1.9"/>
<path id="XMLID_140_" class="st1" d="M17.7,201c1,0,1.9-0.9,1.9-1.9c0-1.1-0.9-1.9-1.9-1.9s-1.9,0.9-1.9,1.9
	C15.8,200.1,16.6,201,17.7,201"/>
<circle id="XMLID_139_" class="st2" cx="17.7" cy="199.1" r="1.9"/>
<path id="XMLID_138_" class="st1" d="M102.8,197c1,0,1.9-0.9,1.9-1.9c0-1.1-0.9-1.9-1.9-1.9c-1.1,0-1.9,0.9-1.9,1.9
	C100.9,196.2,101.8,197,102.8,197"/>
<circle id="XMLID_137_" class="st2" cx="102.8" cy="195.1" r="1.9"/>
<path id="XMLID_136_" class="st1" d="M54.5,153.9c1,0,1.9-0.9,1.9-1.9c0-1.1-0.9-1.9-1.9-1.9c-1.1,0-1.9,0.9-1.9,1.9
	C52.6,153.1,53.4,153.9,54.5,153.9"/>
<circle id="XMLID_135_" class="st2" cx="54.5" cy="152" r="1.9"/>
<path id="XMLID_134_" class="st1" d="M69.9,160.3c1,0,1.9-0.9,1.9-1.9c0-1.1-0.9-1.9-1.9-1.9c-1.1,0-1.9,0.9-1.9,1.9
	C68,159.4,68.9,160.3,69.9,160.3"/>
<circle id="XMLID_133_" class="st2" cx="69.9" cy="158.4" r="1.9"/>
<path id="XMLID_132_" class="st1" d="M74.5,161.9c0.9,0,1.6-0.7,1.6-1.6c0-0.9-0.7-1.6-1.6-1.6s-1.6,0.7-1.6,1.6
	S73.6,161.9,74.5,161.9"/>
<circle id="XMLID_131_" class="st2" cx="74.5" cy="160.3" r="1.6"/>
<path id="XMLID_130_" class="st1" d="M104.3,191.8c1,0,1.9-0.9,1.9-1.9c0-1.1-0.9-1.9-1.9-1.9c-1.1,0-1.9,0.9-1.9,1.9
	C102.4,191,103.3,191.8,104.3,191.8"/>
<circle id="XMLID_129_" class="st2" cx="104.3" cy="189.9" r="1.9"/>
<path id="XMLID_128_" class="st0" d="M30.7,218.5c0,0-22.3-11.8-22.3,0"/>
<path id="XMLID_127_" class="st0" d="M31.4,213.5c0,0-5.4-16.6-11.1-10.7C14.6,208.7,31.4,213.5,31.4,213.5z"/>
<path id="XMLID_126_" class="st0" d="M93.6,202.2c0,0-24.7-9.3-29-32.6c0,0,1,10.5,12.7,11.8C89,182.8,100.8,188.1,93.6,202.2z"/>
<path id="XMLID_125_" class="st0" d="M56.8,188c-7.6-4-6.4-14.7-5.7-22.3c0.9-8.5-6.6-17.8-6.6-17.8"/>
<path id="XMLID_124_" class="st0" d="M76.5,175.2c0,0,13.8,7,26-1.2"/>
<path id="XMLID_123_" class="st1" d="M62.5,160.5c2.8,0,5.1-2.3,5.1-5.1s-2.3-5.1-5.1-5.1s-5.1,2.3-5.1,5.1
	C57.3,158.2,59.6,160.5,62.5,160.5"/>
<circle id="XMLID_122_" class="st2" cx="62.5" cy="155.4" r="5.1"/>
<path id="XMLID_121_" class="st0" d="M77.2,164.1c0,0,0.6,10.6,18.1,7.1"/>
<path id="XMLID_120_" class="st0" d="M46.5,171.1c-0.3-0.1-9.9-1.8-20.3,4.9c0,0,0.3,11.1,7.7,19.8"/>
<path id="XMLID_119_" class="st0" d="M48.1,180.9c-0.6,0-7.5-3.9-17.9-2.8c0,0,5.5,8.4,11.5,13.4"/>
<path id="XMLID_118_" class="st1" d="M4,216.6c-1,0-1.9,0.8-1.9,1.9l0,0l0,0c0,1,0.9,1.9,1.9,1.9s1.9-0.8,1.9-1.9l0,0l0,0
	C5.9,217.4,5,216.6,4,216.6"/>
<path id="XMLID_117_" class="st2" d="M4,216.6c-1,0-1.9,0.8-1.9,1.9l0,0l0,0c0,1,0.9,1.9,1.9,1.9s1.9-0.8,1.9-1.9l0,0l0,0
	C5.9,217.4,5,216.6,4,216.6z"/>
<path id="XMLID_116_" class="st0" d="M127.1,180.9c0,0-13.1-8.5-4-22.7c9.1-14.1,7.5-24,7.5-24"/>
<path id="XMLID_115_" class="st0" d="M146.9,150.5c0,0-16.8-4.4-10.6-10.6"/>
<path id="XMLID_114_" class="st0" d="M142.5,154.9c0,0-8.6-6.8-10.4-2.6C130.4,156.5,142.5,154.9,142.5,154.9z"/>
<path id="XMLID_113_" class="st0" d="M126.1,141.1c0,0-67.4-21-38.4-49.9"/>
<path id="XMLID_112_" class="st0" d="M126.4,129.9c0,0-42.9-18.3-30.6-30.6"/>
<path id="XMLID_111_" class="st0" d="M126.5,135.6c0,0-55.8-20-35.1-40.6"/>
<path id="XMLID_110_" class="st1" d="M124.9,144.5c0.7,0.7,0.7,1.9,0,2.7c-0.7,0.7-1.9,0.7-2.7,0c-0.7-0.7-0.7-1.9,0-2.7
	C122.9,143.8,124.1,143.8,124.9,144.5"/>
<circle id="XMLID_109_" class="st2" cx="123.5" cy="145.9" r="1.9"/>
<path id="XMLID_108_" class="st1" d="M77,99.4c0.7,0.7,0.7,1.9,0,2.7c-0.7,0.7-1.9,0.7-2.7,0c-0.7-0.7-0.7-1.9,0-2.7
	C75.1,98.6,76.3,98.6,77,99.4"/>
<circle id="XMLID_107_" class="st2" cx="75.7" cy="100.7" r="1.9"/>
<path id="XMLID_106_" class="st1" d="M76.5,105c0.7,0.7,0.7,1.9,0,2.7c-0.7,0.7-1.9,0.7-2.7,0c-0.7-0.7-0.7-1.9,0-2.7
	C74.6,104.2,75.8,104.2,76.5,105"/>
<circle id="XMLID_105_" class="st2" cx="75.2" cy="106.3" r="1.9"/>
<path id="XMLID_104_" class="st1" d="M77.6,110.6c0.7,0.7,0.7,1.9,0,2.7c-0.7,0.7-1.9,0.7-2.7,0c-0.7-0.7-0.7-1.9,0-2.7
	C75.7,109.8,76.9,109.8,77.6,110.6"/>
<circle id="XMLID_103_" class="st2" cx="76.3" cy="111.9" r="1.9"/>
<path id="XMLID_102_" class="st1" d="M80.2,115.8c0.7,0.7,0.7,1.9,0,2.7c-0.7,0.7-1.9,0.7-2.7,0c-0.7-0.7-0.7-1.9,0-2.7
	C78.2,115,79.4,115,80.2,115.8"/>
<circle id="XMLID_101_" class="st2" cx="78.8" cy="117.1" r="1.9"/>
<path id="XMLID_100_" class="st1" d="M83.8,120.6c0.7,0.7,0.7,1.9,0,2.7c-0.7,0.7-1.9,0.7-2.7,0c-0.7-0.7-0.7-1.9,0-2.7
	C81.9,119.8,83.1,119.8,83.8,120.6"/>
<circle id="XMLID_99_" class="st2" cx="82.5" cy="121.9" r="1.9"/>
<path id="XMLID_98_" class="st1" d="M87.8,124.6c0.7,0.7,0.7,1.9,0,2.7c-0.7,0.7-1.9,0.7-2.7,0c-0.7-0.7-0.7-1.9,0-2.7
	C85.9,123.8,87.1,123.8,87.8,124.6"/>
<circle id="XMLID_97_" class="st2" cx="86.5" cy="125.9" r="1.9"/>
<path id="XMLID_96_" class="st1" d="M92.4,128c0.7,0.7,0.7,1.9,0,2.7c-0.7,0.7-1.9,0.7-2.7,0c-0.7-0.7-0.7-1.9,0-2.7
	C90.4,127.3,91.7,127.3,92.4,128"/>
<circle id="XMLID_95_" class="st2" cx="91.1" cy="129.3" r="1.9"/>
<path id="XMLID_94_" class="st1" d="M97.4,131c0.7,0.7,0.7,1.9,0,2.7c-0.7,0.7-1.9,0.7-2.7,0c-0.7-0.7-0.7-1.9,0-2.7
	C95.5,130.3,96.7,130.3,97.4,131"/>
<circle id="XMLID_93_" class="st2" cx="96.1" cy="132.3" r="1.9"/>
<path id="XMLID_92_" class="st1" d="M101.7,133.8c0.6,0.6,0.6,1.5,0,2.1s-1.5,0.6-2.1,0s-0.6-1.5,0-2.1S101.1,133.2,101.7,133.8"/>
<circle id="XMLID_91_" class="st2" cx="100.6" cy="134.8" r="1.5"/>
<path id="XMLID_90_" class="st1" d="M105.6,135.6c0.5,0.5,0.5,1.3,0,1.7c-0.5,0.5-1.3,0.5-1.7,0c-0.5-0.5-0.5-1.3,0-1.7
	C104.4,135.2,105.1,135.2,105.6,135.6"/>
<circle id="XMLID_89_" class="st2" cx="104.8" cy="136.5" r="1.2"/>
<path id="XMLID_88_" class="st1" d="M109.1,137c0.4,0.4,0.4,1,0,1.3c-0.4,0.4-1,0.4-1.3,0c-0.4-0.4-0.4-1,0-1.3
	C108.1,136.6,108.7,136.6,109.1,137"/>
<circle id="XMLID_87_" class="st2" cx="108.4" cy="137.6" r="0.9"/>
<path id="XMLID_86_" class="st1" d="M111.8,138.3c0.3,0.3,0.3,0.7,0,1s-0.7,0.3-1,0s-0.3-0.7,0-1C111,138,111.5,138,111.8,138.3"/>
<circle id="XMLID_85_" class="st2" cx="111.3" cy="138.8" r="0.7"/>
<path id="XMLID_84_" class="st1" d="M122.9,149.5c0.7,0.7,0.7,1.9,0,2.7c-0.7,0.7-1.9,0.7-2.7,0c-0.7-0.7-0.7-1.9,0-2.7
	C121,148.7,122.2,148.7,122.9,149.5"/>
<circle id="XMLID_83_" class="st2" cx="121.6" cy="150.8" r="1.9"/>
<path id="XMLID_82_" class="st1" d="M63,91.3c0.7,0.7,0.7,1.9,0,2.7c-0.7,0.7-1.9,0.7-2.7,0c-0.7-0.7-0.7-1.9,0-2.7
	C61.1,90.6,62.3,90.6,63,91.3"/>
<circle id="XMLID_81_" class="st2" cx="61.7" cy="92.6" r="1.9"/>
<path id="XMLID_80_" class="st1" d="M120.5,154.3c0.7,0.7,0.7,1.9,0,2.7c-0.7,0.7-1.9,0.7-2.7,0c-0.7-0.7-0.7-1.9,0-2.7
	C118.5,153.6,119.7,153.6,120.5,154.3"/>
<circle id="XMLID_79_" class="st2" cx="119.1" cy="155.6" r="1.9"/>
<path id="XMLID_78_" class="st1" d="M55.8,150.6c0.7,0.7,0.7,1.9,0,2.7c-0.7,0.7-1.9,0.7-2.7,0c-0.7-0.7-0.7-1.9,0-2.7
	C53.8,149.9,55.1,149.9,55.8,150.6"/>
<circle id="XMLID_77_" class="st2" cx="54.4" cy="152" r="1.9"/>
<path id="XMLID_76_" class="st1" d="M71.2,157c0.7,0.7,0.7,1.9,0,2.7c-0.7,0.7-1.9,0.7-2.7,0c-0.7-0.7-0.7-1.9,0-2.7
	C69.3,156.3,70.5,156.3,71.2,157"/>
<circle id="XMLID_75_" class="st2" cx="69.9" cy="158.4" r="1.9"/>
<path id="XMLID_74_" class="st1" d="M75.6,159.1c0.6,0.6,0.6,1.6,0,2.3c-0.6,0.6-1.6,0.6-2.3,0c-0.6-0.6-0.6-1.6,0-2.3
	C74,158.5,75,158.5,75.6,159.1"/>
<circle id="XMLID_73_" class="st2" cx="74.5" cy="160.3" r="1.6"/>
<path id="XMLID_72_" class="st1" d="M117.9,159.1c0.7,0.7,0.7,1.9,0,2.7c-0.7,0.7-1.9,0.7-2.7,0c-0.7-0.7-0.7-1.9,0-2.7
	S117.1,158.3,117.9,159.1"/>
<circle id="XMLID_71_" class="st2" cx="116.5" cy="160.4" r="1.9"/>
<path id="XMLID_70_" class="st0" d="M84.7,88.2c0,0-24.1-7.4-15.8-15.8"/>
<path id="XMLID_69_" class="st0" d="M81.6,92.1c0,0-15.6,7.9-15.4-0.3C66.3,83.6,81.6,92.1,81.6,92.1z"/>
<path id="XMLID_68_" class="st0" d="M117.6,144.2c0,0-24-10.9-43.6,2.6c0,0,8.1-6.7,17.4,0.6C100.6,154.6,112.8,159.2,117.6,144.2z"
	/>
<path id="XMLID_67_" class="st0" d="M81.6,128.1c-8.2-2.5-15,5.9-19.8,11.8c-5.4,6.6-17.2,7.9-17.2,7.9"/>
<path id="XMLID_66_" class="st0" d="M86.4,151.1c0,0,14.7,4.8,17.5,19.2"/>
<path id="XMLID_65_" class="st1" d="M66.1,151.6c2,2,2,5.3,0,7.3s-5.3,2-7.3,0s-2-5.3,0-7.3C60.9,149.6,64.1,149.6,66.1,151.6"/>
<circle id="XMLID_64_" class="st2" cx="62.5" cy="155.2" r="5.1"/>
<path id="XMLID_63_" class="st0" d="M79,159.5c0,0,7.9-7,17.8,7.8"/>
<path id="XMLID_62_" class="st0" d="M62.3,132.8c-0.3-0.2-8.3-5.7-10.9-17.8c0,0,8.1-7.6,19.4-8.5"/>
<path id="XMLID_61_" class="st0" d="M70.3,127c-0.4-0.4-8.1-2.5-14.7-10.7c0,0,9.8-2.1,17.6-1.3"/>
<path id="XMLID_60_" class="st0" d="M177.4,130.6c0,0-8.5-13.1-22.7-4s-24,7.5-24,7.5"/>
<path id="XMLID_59_" class="st0" d="M147,150.4c0,0-4.4-16.8-10.6-10.6"/>
<path id="XMLID_58_" class="st0" d="M151.4,146c0,0-6.8-8.6-2.6-10.4C153,133.9,151.4,146,151.4,146z"/>
<path id="XMLID_57_" class="st0" d="M137.6,129.6c0,0-21-67.4-49.9-38.4"/>
<path id="XMLID_56_" class="st0" d="M126.4,129.9c0,0-18.3-42.9-30.6-30.6"/>
<path id="XMLID_55_" class="st0" d="M132.1,130c0,0-20-55.8-40.6-35.1"/>
<path id="XMLID_54_" class="st1" d="M141,128.4c0.7,0.7,1.9,0.7,2.7,0c0.7-0.7,0.7-1.9,0-2.7c-0.7-0.7-1.9-0.7-2.7,0
	C140.3,126.4,140.3,127.6,141,128.4"/>
<circle id="XMLID_53_" class="st2" cx="142.4" cy="127" r="1.9"/>
<path id="XMLID_52_" class="st1" d="M95.9,80.5c0.7,0.7,1.9,0.7,2.7,0c0.7-0.7,0.7-1.9,0-2.7c-0.7-0.7-1.9-0.7-2.7,0
	C95.1,78.6,95.1,79.8,95.9,80.5"/>
<circle id="XMLID_51_" class="st2" cx="97.2" cy="79.2" r="1.9"/>
<path id="XMLID_50_" class="st1" d="M101.5,80c0.7,0.7,1.9,0.7,2.7,0c0.7-0.7,0.7-1.9,0-2.7c-0.7-0.7-1.9-0.7-2.7,0
	C100.7,78.1,100.7,79.3,101.5,80"/>
<circle id="XMLID_49_" class="st2" cx="102.8" cy="78.7" r="1.9"/>
<path id="XMLID_48_" class="st1" d="M107.1,81.1c0.7,0.7,1.9,0.7,2.7,0c0.7-0.7,0.7-1.9,0-2.7c-0.7-0.7-1.9-0.7-2.7,0
	C106.3,79.2,106.3,80.4,107.1,81.1"/>
<circle id="XMLID_47_" class="st2" cx="108.4" cy="79.8" r="1.9"/>
<path id="XMLID_46_" class="st1" d="M112.3,83.7c0.7,0.7,1.9,0.7,2.7,0c0.7-0.7,0.7-1.9,0-2.7c-0.7-0.7-1.9-0.7-2.7,0
	C111.5,81.7,111.5,82.9,112.3,83.7"/>
<circle id="XMLID_45_" class="st2" cx="113.6" cy="82.3" r="1.9"/>
<path id="XMLID_44_" class="st1" d="M117.1,87.3c0.7,0.7,1.9,0.7,2.7,0c0.7-0.7,0.7-1.9,0-2.7c-0.7-0.7-1.9-0.7-2.7,0
	C116.3,85.4,116.3,86.6,117.1,87.3"/>
<circle id="XMLID_43_" class="st2" cx="118.4" cy="86" r="1.9"/>
<path id="XMLID_42_" class="st1" d="M121.1,91.3c0.7,0.7,1.9,0.7,2.7,0c0.7-0.7,0.7-1.9,0-2.7c-0.7-0.7-1.9-0.7-2.7,0
	C120.3,89.4,120.3,90.6,121.1,91.3"/>
<circle id="XMLID_41_" class="st2" cx="122.4" cy="90" r="1.9"/>
<path id="XMLID_40_" class="st1" d="M124.5,95.9c0.7,0.7,1.9,0.7,2.7,0c0.7-0.7,0.7-1.9,0-2.7c-0.7-0.7-1.9-0.7-2.7,0
	C123.8,93.9,123.8,95.2,124.5,95.9"/>
<circle id="XMLID_39_" class="st2" cx="125.8" cy="94.6" r="1.9"/>
<path id="XMLID_38_" class="st1" d="M127.5,100.9c0.7,0.7,1.9,0.7,2.7,0c0.7-0.7,0.7-1.9,0-2.7c-0.7-0.7-1.9-0.7-2.7,0
	C126.8,99,126.8,100.2,127.5,100.9"/>
<circle id="XMLID_37_" class="st2" cx="128.8" cy="99.6" r="1.9"/>
<path id="XMLID_36_" class="st1" d="M130.3,105.2c0.6,0.6,1.5,0.6,2.1,0s0.6-1.5,0-2.1s-1.5-0.6-2.1,0S129.7,104.6,130.3,105.2"/>
<circle id="XMLID_35_" class="st2" cx="131.3" cy="104.1" r="1.5"/>
<path id="XMLID_34_" class="st1" d="M132.1,109.1c0.5,0.5,1.3,0.5,1.7,0c0.5-0.5,0.5-1.3,0-1.7c-0.5-0.5-1.3-0.5-1.7,0
	C131.7,107.9,131.7,108.6,132.1,109.1"/>
<circle id="XMLID_33_" class="st2" cx="133" cy="108.3" r="1.2"/>
<path id="XMLID_32_" class="st1" d="M133.5,112.6c0.4,0.4,1,0.4,1.3,0c0.4-0.4,0.4-1,0-1.3c-0.4-0.4-1-0.4-1.3,0
	C133.1,111.6,133.1,112.2,133.5,112.6"/>
<circle id="XMLID_31_" class="st2" cx="134.1" cy="111.9" r="0.9"/>
<path id="XMLID_30_" class="st1" d="M134.8,115.3c0.3,0.3,0.7,0.3,1,0s0.3-0.7,0-1s-0.7-0.3-1,0C134.5,114.5,134.5,115,134.8,115.3"
	/>
<circle id="XMLID_29_" class="st2" cx="135.3" cy="114.8" r="0.7"/>
<path id="XMLID_28_" class="st1" d="M146,126.4c0.7,0.7,1.9,0.7,2.7,0c0.7-0.7,0.7-1.9,0-2.7c-0.7-0.7-1.9-0.7-2.7,0
	C145.2,124.5,145.2,125.7,146,126.4"/>
<circle id="XMLID_27_" class="st2" cx="147.3" cy="125.1" r="1.9"/>
<path id="XMLID_26_" class="st1" d="M87.8,66.5c0.7,0.7,1.9,0.7,2.7,0c0.7-0.7,0.7-1.9,0-2.7c-0.7-0.7-1.9-0.7-2.7,0
	C87.1,64.6,87.1,65.8,87.8,66.5"/>
<circle id="XMLID_25_" class="st2" cx="89.1" cy="65.2" r="1.9"/>
<path id="XMLID_24_" class="st1" d="M150.8,124c0.7,0.7,1.9,0.7,2.7,0c0.7-0.7,0.7-1.9,0-2.7c-0.7-0.7-1.9-0.7-2.7,0
	C150.1,122,150.1,123.2,150.8,124"/>
<circle id="XMLID_23_" class="st2" cx="152.1" cy="122.6" r="1.9"/>
<path id="XMLID_22_" class="st1" d="M147.1,59.3c0.7,0.7,1.9,0.7,2.7,0c0.7-0.7,0.7-1.9,0-2.7c-0.7-0.7-1.9-0.7-2.7,0
	C146.4,57.3,146.4,58.6,147.1,59.3"/>
<circle id="XMLID_21_" class="st2" cx="148.5" cy="58" r="1.9"/>
<path id="XMLID_20_" class="st1" d="M153.5,74.7c0.7,0.7,1.9,0.7,2.7,0c0.7-0.7,0.7-1.9,0-2.7c-0.7-0.7-1.9-0.7-2.7,0
	C152.8,72.8,152.8,74,153.5,74.7"/>
<circle id="XMLID_19_" class="st2" cx="154.9" cy="73.4" r="1.9"/>
<path id="XMLID_18_" class="st1" d="M155.6,79.1c0.6,0.6,1.6,0.6,2.3,0c0.6-0.6,0.6-1.6,0-2.3c-0.6-0.6-1.6-0.6-2.3,0
	C155,77.5,155,78.5,155.6,79.1"/>
<circle id="XMLID_17_" class="st2" cx="156.8" cy="78" r="1.6"/>
<path id="XMLID_16_" class="st1" d="M155.6,121.4c0.7,0.7,1.9,0.7,2.7,0c0.7-0.7,0.7-1.9,0-2.7c-0.7-0.7-1.9-0.7-2.7,0
	S154.8,120.6,155.6,121.4"/>
<circle id="XMLID_15_" class="st2" cx="156.9" cy="120" r="1.9"/>
<path id="XMLID_14_" class="st0" d="M84.7,88.2c0,0-7.4-24.1-15.8-15.8"/>
<path id="XMLID_13_" class="st0" d="M88.6,85.1c0,0,7.9-15.6-0.3-15.4C80.1,69.8,88.6,85.1,88.6,85.1z"/>
<path id="XMLID_12_" class="st0" d="M140.7,121.1c0,0-10.9-24,2.6-43.6c0,0-6.7,8.1,0.6,17.4C151.1,104.1,155.7,116.3,140.7,121.1z"
	/>
<path id="XMLID_11_" class="st0" d="M124.6,85.1c-2.5-8.2,5.9-15,11.8-19.8c6.6-5.4,7.9-17.2,7.9-17.2"/>
<path id="XMLID_10_" class="st0" d="M147.6,89.9c0,0,4.8,14.7,19.2,17.5"/>
<path id="XMLID_9_" class="st1" d="M148.1,69.6c2,2,5.3,2,7.3,0s2-5.3,0-7.3c-2-2-5.3-2-7.3,0C146.1,64.4,146.1,67.6,148.1,69.6"/>
<circle id="XMLID_8_" class="st2" cx="151.7" cy="66" r="5.1"/>
<path id="XMLID_7_" class="st0" d="M156,82.5c0,0-7,7.9,7.8,17.8"/>
<path id="XMLID_6_" class="st0" d="M129.3,65.8c-0.2-0.3-5.7-8.3-17.8-10.9c0,0-7.6,8.1-8.5,19.4"/>
<path id="XMLID_5_" class="st0" d="M123.5,73.8c-0.4-0.4-2.5-8.1-10.7-14.7c0,0-2.1,9.8-1.3,17.6"/>
<path id="XMLID_4_" class="st1" d="M67.1,67.9c-0.7-0.7-1.9-0.7-2.7,0l0,0l0,0l0,0c-0.7,0.7-0.7,1.9,0,2.7c0.7,0.7,1.9,0.7,2.7,0
	l0,0l0,0C67.8,69.8,67.8,68.6,67.1,67.9"/>
<path id="XMLID_3_" class="st2" d="M67.1,67.9c-0.7-0.7-1.9-0.7-2.7,0l0,0l0,0l0,0c-0.7,0.7-0.7,1.9,0,2.7c0.7,0.7,1.9,0.7,2.7,0
	l0,0l0,0C67.8,69.8,67.8,68.6,67.1,67.9z"/>
<polyline id="XMLID_2_" class="st3" points="428.4,431.9 1.6,431.9 1.6,5 428.4,5 "/>
</svg>
