<?xml version="1.0" encoding="utf-8"?>
<!-- Generator: Adobe Illustrator 19.0.0, SVG Export Plug-In . SVG Version: 6.00 Build 0)  -->
<svg version="1.1" id="Layer_1" xmlns="http://www.w3.org/2000/svg" xmlns:xlink="http://www.w3.org/1999/xlink" x="0px" y="0px"
	 viewBox="0 0 215 430" style="enable-background:new 0 0 215 430;" xml:space="preserve">
<style type="text/css">
	.st0{fill:none;stroke:#FFFFFF;stroke-width:2.144;stroke-linecap:round;stroke-linejoin:round;stroke-miterlimit:10;}
	.st1{fill:#FFFFFF;}
	.st2{fill:none;stroke:#FFFFFF;stroke-miterlimit:10;}
	.st3{fill:none;}
</style>
<path id="XMLID_456_" class="st0" d="M37.5,123.8c0,0,3.2-15.3-13.2-18.8C7.9,101.4,2,93.3,2,93.3"/>
<path id="XMLID_455_" class="st0" d="M2,116.3c0,0,8.7-15,0-15"/>
<path id="XMLID_454_" class="st0" d="M8.3,116.3c0,0,1.3-10.9,5.5-9.2C18,108.9,8.3,116.3,8.3,116.3z"/>
<path id="XMLID_453_" class="st0" d="M10.1,94.9c0,0,32.8-62.5-8.1-62.5"/>
<path id="XMLID_452_" class="st0" d="M2,87.2C2,87.2,19.4,44,2,44"/>
<path id="XMLID_451_" class="st0" d="M5.9,91.3c0,0,25.3-53.5-3.9-53.5"/>
<path id="XMLID_450_" class="st1" d="M13.4,96.5c0,1.1,0.9,1.9,1.9,1.9c1.1,0,1.9-0.9,1.9-1.9s-0.9-1.9-1.9-1.9
	C14.2,94.6,13.4,95.4,13.4,96.5"/>
<circle id="XMLID_449_" class="st2" cx="15.3" cy="96.5" r="1.9"/>
<path id="XMLID_448_" class="st1" d="M15.3,30.7c0,1.1,0.9,1.9,1.9,1.9c1.1,0,1.9-0.9,1.9-1.9s-0.9-1.9-1.9-1.9
	C16.1,28.8,15.3,29.7,15.3,30.7"/>
<circle id="XMLID_447_" class="st2" cx="17.2" cy="30.7" r="1.9"/>
<path id="XMLID_446_" class="st1" d="M19.6,34.3c0,1.1,0.9,1.9,1.9,1.9c1.1,0,1.9-0.9,1.9-1.9s-0.9-1.9-1.9-1.9
	C20.5,32.4,19.6,33.3,19.6,34.3"/>
<circle id="XMLID_445_" class="st2" cx="21.5" cy="34.3" r="1.9"/>
<path id="XMLID_444_" class="st1" d="M22.8,39.1c0,1.1,0.9,1.9,1.9,1.9c1.1,0,1.9-0.9,1.9-1.9s-0.9-1.9-1.9-1.9
	C23.6,37.2,22.8,38,22.8,39.1"/>
<circle id="XMLID_443_" class="st2" cx="24.7" cy="39.1" r="1.9"/>
<path id="XMLID_442_" class="st1" d="M24.7,44.6c0,1.1,0.9,1.9,1.9,1.9c1.1,0,1.9-0.9,1.9-1.9s-0.9-1.9-1.9-1.9
	C25.5,42.7,24.7,43.5,24.7,44.6"/>
<circle id="XMLID_441_" class="st2" cx="26.6" cy="44.6" r="1.9"/>
<path id="XMLID_440_" class="st1" d="M25.5,50.5c0,1.1,0.9,1.9,1.9,1.9c1.1,0,1.9-0.9,1.9-1.9s-0.9-1.9-1.9-1.9
	C26.3,48.6,25.5,49.5,25.5,50.5"/>
<circle id="XMLID_439_" class="st2" cx="27.4" cy="50.5" r="1.9"/>
<path id="XMLID_438_" class="st1" d="M25.5,56.2c0,1.1,0.9,1.9,1.9,1.9c1.1,0,1.9-0.9,1.9-1.9s-0.9-1.9-1.9-1.9
	C26.3,54.3,25.5,55.1,25.5,56.2"/>
<circle id="XMLID_437_" class="st2" cx="27.4" cy="56.2" r="1.9"/>
<path id="XMLID_436_" class="st1" d="M24.7,61.8c0,1.1,0.9,1.9,1.9,1.9c1.1,0,1.9-0.9,1.9-1.9s-0.9-1.9-1.9-1.9
	C25.5,59.9,24.7,60.8,24.7,61.8"/>
<circle id="XMLID_435_" class="st2" cx="26.6" cy="61.8" r="1.9"/>
<path id="XMLID_434_" class="st1" d="M23.3,67.5c0,1.1,0.9,1.9,1.9,1.9c1.1,0,1.9-0.9,1.9-1.9s-0.9-1.9-1.9-1.9
	C24.1,65.6,23.3,66.5,23.3,67.5"/>
<circle id="XMLID_433_" class="st2" cx="25.2" cy="67.5" r="1.9"/>
<path id="XMLID_432_" class="st1" d="M22.2,72.5c0,0.8,0.7,1.5,1.5,1.5s1.5-0.7,1.5-1.5S24.5,71,23.7,71
	C22.9,71,22.2,71.7,22.2,72.5"/>
<circle id="XMLID_431_" class="st2" cx="23.7" cy="72.5" r="1.5"/>
<path id="XMLID_430_" class="st1" d="M20.7,76.6c0,0.7,0.5,1.2,1.2,1.2s1.2-0.5,1.2-1.2s-0.6-1.2-1.2-1.2
	C21.3,75.4,20.7,75.9,20.7,76.6"/>
<circle id="XMLID_429_" class="st2" cx="22" cy="76.6" r="1.2"/>
<path id="XMLID_428_" class="st1" d="M19.2,80c0,0.5,0.4,0.9,0.9,0.9S21,80.5,21,80s-0.4-0.9-0.9-0.9C19.7,79,19.2,79.5,19.2,80"/>
<circle id="XMLID_427_" class="st2" cx="20.2" cy="80" r="0.9"/>
<path id="XMLID_426_" class="st1" d="M18.3,82.8c0,0.4,0.3,0.7,0.7,0.7c0.4,0,0.7-0.3,0.7-0.7c0-0.4-0.3-0.7-0.7-0.7
	C18.6,82.1,18.3,82.4,18.3,82.8"/>
<circle id="XMLID_425_" class="st2" cx="19" cy="82.8" r="0.7"/>
<path id="XMLID_424_" class="st1" d="M18.3,98.6c0,1.1,0.9,1.9,1.9,1.9c1.1,0,1.9-0.9,1.9-1.9s-0.9-1.9-1.9-1.9
	C19.1,96.7,18.3,97.6,18.3,98.6"/>
<circle id="XMLID_423_" class="st2" cx="20.2" cy="98.6" r="1.9"/>
<path id="XMLID_422_" class="st1" d="M19.5,15.1c0,1.1,0.9,1.9,1.9,1.9c1.1,0,1.9-0.9,1.9-1.9s-0.9-1.9-1.9-1.9
	C20.3,13.2,19.5,14.1,19.5,15.1"/>
<circle id="XMLID_421_" class="st2" cx="21.4" cy="15.1" r="1.9"/>
<path id="XMLID_420_" class="st1" d="M23.4,100.3c0,1.1,0.9,1.9,1.9,1.9c1.1,0,1.9-0.9,1.9-1.9s-0.9-1.9-1.9-1.9
	S23.4,99.2,23.4,100.3"/>
<circle id="XMLID_419_" class="st2" cx="25.3" cy="100.3" r="1.9"/>
<path id="XMLID_418_" class="st1" d="M66.5,51.9c0,1.1,0.9,1.9,1.9,1.9c1.1,0,1.9-0.9,1.9-1.9S69.4,50,68.4,50S66.5,50.9,66.5,51.9"
	/>
<circle id="XMLID_417_" class="st2" cx="68.4" cy="51.9" r="1.9"/>
<path id="XMLID_416_" class="st1" d="M60.2,67.4c0,1.1,0.9,1.9,1.9,1.9c1.1,0,1.9-0.9,1.9-1.9s-0.9-1.9-1.9-1.9
	C61,65.5,60.2,66.4,60.2,67.4"/>
<circle id="XMLID_415_" class="st2" cx="62.1" cy="67.4" r="1.9"/>
<path id="XMLID_414_" class="st1" d="M58.6,72c0,0.9,0.7,1.6,1.6,1.6c0.9,0,1.6-0.7,1.6-1.6s-0.7-1.6-1.6-1.6S58.6,71.1,58.6,72"/>
<circle id="XMLID_413_" class="st2" cx="60.2" cy="72" r="1.6"/>
<path id="XMLID_412_" class="st1" d="M28.6,101.8c0,1.1,0.9,1.9,1.9,1.9c1.1,0,1.9-0.9,1.9-1.9s-0.9-1.9-1.9-1.9
	C29.5,99.9,28.6,100.8,28.6,101.8"/>
<circle id="XMLID_411_" class="st2" cx="30.5" cy="101.8" r="1.9"/>
<path id="XMLID_410_" class="st0" d="M2,28.2c0,0,11.8-22.3,0-22.3"/>
<path id="XMLID_409_" class="st0" d="M6.9,28.8c0,0,16.6-5.4,10.7-11.1C11.8,12,6.9,28.8,6.9,28.8z"/>
<path id="XMLID_408_" class="st0" d="M18.3,91.1c0,0,9.3-24.7,32.6-29c0,0-10.5,1-11.8,12.7C37.7,86.5,32.3,98.3,18.3,91.1z"/>
<path id="XMLID_407_" class="st0" d="M32.4,54.3c4-7.6,14.7-6.4,22.3-5.7c8.5,0.9,17.8-6.6,17.8-6.6"/>
<path id="XMLID_406_" class="st0" d="M45.2,74c0,0-7,13.8,1.2,26"/>
<path id="XMLID_405_" class="st1" d="M59.9,60c0,2.8,2.3,5.1,5.1,5.1c2.8,0,5.1-2.3,5.1-5.1s-2.3-5.1-5.1-5.1
	C62.3,54.8,59.9,57.1,59.9,60"/>
<circle id="XMLID_404_" class="st2" cx="65.1" cy="60" r="5.1"/>
<path id="XMLID_403_" class="st0" d="M56.4,74.7c0,0-10.6,0.6-7.1,18.1"/>
<path id="XMLID_402_" class="st0" d="M49.3,44c0.1-0.3,1.8-9.9-4.9-20.3c0,0-11.1,0.3-19.8,7.7"/>
<path id="XMLID_401_" class="st0" d="M39.5,45.5c0-0.6,3.9-7.5,2.8-17.9c0,0-8.4,5.5-13.4,11.5"/>
<path id="XMLID_400_" class="st0" d="M39.6,124.6c0,0,8.5-13.1,22.7-4c14.1,9.1,24,7.5,24,7.5"/>
<path id="XMLID_399_" class="st0" d="M70,144.4c0,0,4.4-16.8,10.6-10.6"/>
<path id="XMLID_398_" class="st0" d="M65.5,140c0,0,6.8-8.6,2.6-10.4C63.9,127.8,65.5,140,65.5,140z"/>
<path id="XMLID_397_" class="st0" d="M79.4,123.5c0,0,21-67.4,49.9-38.4"/>
<path id="XMLID_396_" class="st0" d="M90.5,123.8c0,0,18.3-42.9,30.6-30.6"/>
<path id="XMLID_395_" class="st0" d="M84.9,124c0,0,20-55.8,40.6-35.1"/>
<path id="XMLID_394_" class="st1" d="M75.9,122.4c-0.7,0.7-1.9,0.7-2.7,0c-0.7-0.7-0.7-1.9,0-2.7c0.7-0.7,1.9-0.7,2.7,0
	S76.7,121.6,75.9,122.4"/>
<circle id="XMLID_393_" class="st2" cx="74.6" cy="121" r="1.9"/>
<path id="XMLID_392_" class="st1" d="M121.1,74.5c-0.7,0.7-1.9,0.7-2.7,0c-0.7-0.7-0.7-1.9,0-2.7c0.7-0.7,1.9-0.7,2.7,0
	C121.8,72.6,121.8,73.8,121.1,74.5"/>
<circle id="XMLID_391_" class="st2" cx="119.7" cy="73.2" r="1.9"/>
<path id="XMLID_390_" class="st1" d="M115.5,74c-0.7,0.7-1.9,0.7-2.7,0c-0.7-0.7-0.7-1.9,0-2.7c0.7-0.7,1.9-0.7,2.7,0
	C116.2,72,116.2,73.2,115.5,74"/>
<circle id="XMLID_389_" class="st2" cx="114.1" cy="72.6" r="1.9"/>
<path id="XMLID_388_" class="st1" d="M109.9,75.1c-0.7,0.7-1.9,0.7-2.7,0c-0.7-0.7-0.7-1.9,0-2.7c0.7-0.7,1.9-0.7,2.7,0
	C110.6,73.2,110.6,74.4,109.9,75.1"/>
<circle id="XMLID_387_" class="st2" cx="108.6" cy="73.8" r="1.9"/>
<path id="XMLID_386_" class="st1" d="M104.7,77.6c-0.7,0.7-1.9,0.7-2.7,0c-0.7-0.7-0.7-1.9,0-2.7c0.7-0.7,1.9-0.7,2.7,0
	C105.4,75.7,105.4,76.9,104.7,77.6"/>
<circle id="XMLID_385_" class="st2" cx="103.3" cy="76.3" r="1.9"/>
<path id="XMLID_384_" class="st1" d="M99.9,81.3c-0.7,0.7-1.9,0.7-2.7,0c-0.7-0.7-0.7-1.9,0-2.7c0.7-0.7,1.9-0.7,2.7,0
	C100.6,79.3,100.6,80.5,99.9,81.3"/>
<circle id="XMLID_383_" class="st2" cx="98.6" cy="79.9" r="1.9"/>
<path id="XMLID_382_" class="st1" d="M95.9,85.3c-0.7,0.7-1.9,0.7-2.7,0c-0.7-0.7-0.7-1.9,0-2.7c0.7-0.7,1.9-0.7,2.7,0
	C96.6,83.3,96.6,84.5,95.9,85.3"/>
<circle id="XMLID_381_" class="st2" cx="94.5" cy="83.9" r="1.9"/>
<path id="XMLID_380_" class="st1" d="M92.5,89.9c-0.7,0.7-1.9,0.7-2.7,0c-0.7-0.7-0.7-1.9,0-2.7c0.7-0.7,1.9-0.7,2.7,0
	C93.2,87.9,93.2,89.1,92.5,89.9"/>
<circle id="XMLID_379_" class="st2" cx="91.1" cy="88.5" r="1.9"/>
<path id="XMLID_378_" class="st1" d="M89.5,94.9c-0.7,0.7-1.9,0.7-2.7,0c-0.7-0.7-0.7-1.9,0-2.7c0.7-0.7,1.9-0.7,2.7,0
	C90.2,92.9,90.2,94.1,89.5,94.9"/>
<circle id="XMLID_377_" class="st2" cx="88.1" cy="93.5" r="1.9"/>
<path id="XMLID_376_" class="st1" d="M86.7,99.1c-0.6,0.6-1.5,0.6-2.1,0s-0.6-1.5,0-2.1s1.5-0.6,2.1,0
	C87.3,97.6,87.3,98.6,86.7,99.1"/>
<circle id="XMLID_375_" class="st2" cx="85.6" cy="98.1" r="1.5"/>
<path id="XMLID_374_" class="st1" d="M84.8,103.1c-0.5,0.5-1.3,0.5-1.7,0c-0.5-0.5-0.5-1.3,0-1.7c0.5-0.5,1.3-0.5,1.7,0
	C85.3,101.8,85.3,102.6,84.8,103.1"/>
<circle id="XMLID_373_" class="st2" cx="83.9" cy="102.2" r="1.2"/>
<path id="XMLID_372_" class="st1" d="M83.5,106.5c-0.4,0.4-1,0.4-1.3,0c-0.4-0.4-0.4-1,0-1.3c0.4-0.4,1-0.4,1.3,0
	S83.8,106.2,83.5,106.5"/>
<circle id="XMLID_371_" class="st2" cx="82.8" cy="105.9" r="0.9"/>
<path id="XMLID_370_" class="st1" d="M82.2,109.2c-0.3,0.3-0.7,0.3-1,0s-0.3-0.7,0-1s0.7-0.3,1,0C82.4,108.5,82.4,108.9,82.2,109.2"
	/>
<circle id="XMLID_369_" class="st2" cx="81.7" cy="108.7" r="0.7"/>
<path id="XMLID_368_" class="st1" d="M71,120.4c-0.7,0.7-1.9,0.7-2.7,0c-0.7-0.7-0.7-1.9,0-2.7c0.7-0.7,1.9-0.7,2.7,0
	C71.7,118.5,71.7,119.7,71,120.4"/>
<circle id="XMLID_367_" class="st2" cx="69.6" cy="119.1" r="1.9"/>
<path id="XMLID_366_" class="st1" d="M129.1,60.5c-0.7,0.7-1.9,0.7-2.7,0c-0.7-0.7-0.7-1.9,0-2.7c0.7-0.7,1.9-0.7,2.7,0
	C129.9,58.6,129.9,59.8,129.1,60.5"/>
<circle id="XMLID_365_" class="st2" cx="127.8" cy="59.2" r="1.9"/>
<path id="XMLID_364_" class="st1" d="M66.1,117.9c-0.7,0.7-1.9,0.7-2.7,0c-0.7-0.7-0.7-1.9,0-2.7c0.7-0.7,1.9-0.7,2.7,0
	C66.9,116,66.9,117.2,66.1,117.9"/>
<circle id="XMLID_363_" class="st2" cx="64.8" cy="116.6" r="1.9"/>
<path id="XMLID_362_" class="st1" d="M69.8,53.3c-0.7,0.7-1.9,0.7-2.7,0c-0.7-0.7-0.7-1.9,0-2.7c0.7-0.7,1.9-0.7,2.7,0
	S70.6,52.5,69.8,53.3"/>
<circle id="XMLID_361_" class="st2" cx="68.5" cy="51.9" r="1.9"/>
<path id="XMLID_360_" class="st1" d="M63.4,68.7c-0.7,0.7-1.9,0.7-2.7,0C60,68,60,66.8,60.7,66c0.7-0.7,1.9-0.7,2.7,0
	C64.2,66.8,64.2,68,63.4,68.7"/>
<circle id="XMLID_359_" class="st2" cx="62.1" cy="67.4" r="1.9"/>
<path id="XMLID_358_" class="st1" d="M61.3,73.1c-0.6,0.6-1.6,0.6-2.3,0c-0.6-0.6-0.6-1.6,0-2.3c0.6-0.6,1.6-0.6,2.3,0
	C61.9,71.4,61.9,72.4,61.3,73.1"/>
<circle id="XMLID_357_" class="st2" cx="60.2" cy="71.9" r="1.6"/>
<path id="XMLID_356_" class="st1" d="M61.4,115.3c-0.7,0.7-1.9,0.7-2.7,0c-0.7-0.7-0.7-1.9,0-2.7c0.7-0.7,1.9-0.7,2.7,0
	C62.1,113.4,62.1,114.6,61.4,115.3"/>
<circle id="XMLID_355_" class="st2" cx="60" cy="114" r="1.9"/>
<path id="XMLID_354_" class="st0" d="M132.3,82.1c0,0,7.4-24.1,15.8-15.8"/>
<path id="XMLID_353_" class="st0" d="M128.4,79.1c0,0-7.9-15.6,0.3-15.4C136.8,63.8,128.4,79.1,128.4,79.1z"/>
<path id="XMLID_352_" class="st0" d="M76.3,115.1c0,0,10.9-24-2.6-43.6c0,0,6.7,8.1-0.6,17.4C65.9,98.1,61.3,110.2,76.3,115.1z"/>
<path id="XMLID_351_" class="st0" d="M92.3,79c2.5-8.2-5.9-15-11.8-19.8C73.9,53.8,72.6,42,72.6,42"/>
<path id="XMLID_350_" class="st0" d="M69.3,83.9c0,0-4.8,14.7-19.2,17.5"/>
<path id="XMLID_349_" class="st1" d="M68.8,63.6c-2,2-5.3,2-7.3,0s-2-5.3,0-7.3s5.3-2,7.3,0C70.9,58.3,70.9,61.6,68.8,63.6"/>
<circle id="XMLID_348_" class="st2" cx="65.2" cy="60" r="5.1"/>
<path id="XMLID_347_" class="st0" d="M61,76.5c0,0,7,7.9-7.8,17.8"/>
<path id="XMLID_346_" class="st0" d="M87.7,59.8c0.2-0.3,5.7-8.3,17.8-10.9c0,0,7.6,8.1,8.5,19.4"/>
<path id="XMLID_345_" class="st0" d="M93.5,67.8c0.4-0.4,2.5-8.1,10.7-14.7c0,0,2.1,9.8,1.3,17.6"/>
<path id="XMLID_344_" class="st0" d="M89.8,174.8c0,0,13.1-8.5,4-22.7c-9.1-14.1-7.5-24-7.5-24"/>
<path id="XMLID_343_" class="st0" d="M70,144.4c0,0,16.8-4.4,10.6-10.6"/>
<path id="XMLID_342_" class="st0" d="M74.5,148.9c0,0,8.6-6.8,10.4-2.6C86.6,150.5,74.5,148.9,74.5,148.9z"/>
<path id="XMLID_341_" class="st0" d="M90.9,135c0,0,67.4-21,38.4-49.9"/>
<path id="XMLID_340_" class="st0" d="M90.6,123.9c0,0,42.9-18.3,30.6-30.6"/>
<path id="XMLID_339_" class="st0" d="M90.4,129.5c0,0,55.8-20,35.1-40.6"/>
<path id="XMLID_338_" class="st1" d="M92.1,138.5c-0.7,0.7-0.7,1.9,0,2.7c0.7,0.7,1.9,0.7,2.7,0c0.7-0.7,0.7-1.9,0-2.7
	C94,137.7,92.8,137.7,92.1,138.5"/>
<circle id="XMLID_337_" class="st2" cx="93.4" cy="139.8" r="1.9"/>
<path id="XMLID_336_" class="st1" d="M139.9,93.3c-0.7,0.7-0.7,1.9,0,2.7c0.7,0.7,1.9,0.7,2.7,0c0.7-0.7,0.7-1.9,0-2.7
	C141.9,92.6,140.6,92.6,139.9,93.3"/>
<circle id="XMLID_335_" class="st2" cx="141.3" cy="94.7" r="1.9"/>
<path id="XMLID_334_" class="st1" d="M140.4,98.9c-0.7,0.7-0.7,1.9,0,2.7c0.7,0.7,1.9,0.7,2.7,0c0.7-0.7,0.7-1.9,0-2.7
	C142.4,98.2,141.2,98.2,140.4,98.9"/>
<circle id="XMLID_333_" class="st2" cx="141.8" cy="100.3" r="1.9"/>
<path id="XMLID_332_" class="st1" d="M139.3,104.5c-0.7,0.7-0.7,1.9,0,2.7c0.7,0.7,1.9,0.7,2.7,0c0.7-0.7,0.7-1.9,0-2.7
	C141.3,103.8,140.1,103.8,139.3,104.5"/>
<circle id="XMLID_331_" class="st2" cx="140.7" cy="105.9" r="1.9"/>
<path id="XMLID_330_" class="st1" d="M136.8,109.7c-0.7,0.7-0.7,1.9,0,2.7c0.7,0.7,1.9,0.7,2.7,0c0.7-0.7,0.7-1.9,0-2.7
	C138.7,109,137.5,109,136.8,109.7"/>
<circle id="XMLID_329_" class="st2" cx="138.1" cy="111.1" r="1.9"/>
<path id="XMLID_328_" class="st1" d="M133.1,114.5c-0.7,0.7-0.7,1.9,0,2.7c0.7,0.7,1.9,0.7,2.7,0c0.7-0.7,0.7-1.9,0-2.7
	C135.1,113.8,133.9,113.8,133.1,114.5"/>
<circle id="XMLID_327_" class="st2" cx="134.5" cy="115.9" r="1.9"/>
<path id="XMLID_326_" class="st1" d="M129.1,118.5c-0.7,0.7-0.7,1.9,0,2.7c0.7,0.7,1.9,0.7,2.7,0c0.7-0.7,0.7-1.9,0-2.7
	C131.1,117.8,129.9,117.8,129.1,118.5"/>
<circle id="XMLID_325_" class="st2" cx="130.5" cy="119.9" r="1.9"/>
<path id="XMLID_324_" class="st1" d="M124.6,122c-0.7,0.7-0.7,1.9,0,2.7c0.7,0.7,1.9,0.7,2.7,0c0.7-0.7,0.7-1.9,0-2.7
	C126.5,121.2,125.3,121.2,124.6,122"/>
<circle id="XMLID_323_" class="st2" cx="125.9" cy="123.3" r="1.9"/>
<path id="XMLID_322_" class="st1" d="M119.5,125c-0.7,0.7-0.7,1.9,0,2.7c0.7,0.7,1.9,0.7,2.7,0c0.7-0.7,0.7-1.9,0-2.7
	C121.5,124.2,120.3,124.2,119.5,125"/>
<circle id="XMLID_321_" class="st2" cx="120.9" cy="126.3" r="1.9"/>
<path id="XMLID_320_" class="st1" d="M115.3,127.7c-0.6,0.6-0.6,1.5,0,2.1s1.5,0.6,2.1,0s0.6-1.5,0-2.1
	C116.8,127.2,115.9,127.2,115.3,127.7"/>
<circle id="XMLID_319_" class="st2" cx="116.3" cy="128.8" r="1.5"/>
<path id="XMLID_318_" class="st1" d="M111.3,129.6c-0.5,0.5-0.5,1.3,0,1.7c0.5,0.5,1.3,0.5,1.7,0c0.5-0.5,0.5-1.3,0-1.7
	C112.6,129.1,111.8,129.1,111.3,129.6"/>
<circle id="XMLID_317_" class="st2" cx="112.2" cy="130.5" r="1.2"/>
<path id="XMLID_316_" class="st1" d="M107.9,130.9c-0.4,0.4-0.4,1,0,1.3c0.4,0.4,1,0.4,1.3,0c0.4-0.4,0.4-1,0-1.3
	C108.9,130.6,108.3,130.6,107.9,130.9"/>
<circle id="XMLID_315_" class="st2" cx="108.6" cy="131.6" r="0.9"/>
<path id="XMLID_314_" class="st1" d="M105.2,132.3c-0.3,0.3-0.3,0.7,0,1s0.7,0.3,1,0s0.3-0.7,0-1C105.9,132,105.5,132,105.2,132.3"
	/>
<circle id="XMLID_313_" class="st2" cx="105.7" cy="132.8" r="0.7"/>
<path id="XMLID_312_" class="st1" d="M94,143.5c-0.7,0.7-0.7,1.9,0,2.7c0.7,0.7,1.9,0.7,2.7,0c0.7-0.7,0.7-1.9,0-2.7
	S94.8,142.7,94,143.5"/>
<circle id="XMLID_311_" class="st2" cx="95.4" cy="144.8" r="1.9"/>
<path id="XMLID_310_" class="st1" d="M153.9,85.3c-0.7,0.7-0.7,1.9,0,2.7c0.7,0.7,1.9,0.7,2.7,0c0.7-0.7,0.7-1.9,0-2.7
	C155.9,84.5,154.7,84.5,153.9,85.3"/>
<circle id="XMLID_309_" class="st2" cx="155.3" cy="86.6" r="1.9"/>
<path id="XMLID_308_" class="st1" d="M96.5,148.3c-0.7,0.7-0.7,1.9,0,2.7c0.7,0.7,1.9,0.7,2.7,0c0.7-0.7,0.7-1.9,0-2.7
	C98.4,147.5,97.2,147.5,96.5,148.3"/>
<circle id="XMLID_307_" class="st2" cx="97.8" cy="149.6" r="1.9"/>
<path id="XMLID_306_" class="st1" d="M161.2,144.6c-0.7,0.7-0.7,1.9,0,2.7c0.7,0.7,1.9,0.7,2.7,0c0.7-0.7,0.7-1.9,0-2.7
	C163.1,143.8,161.9,143.8,161.2,144.6"/>
<circle id="XMLID_305_" class="st2" cx="162.5" cy="145.9" r="1.9"/>
<path id="XMLID_304_" class="st1" d="M145.7,151c-0.7,0.7-0.7,1.9,0,2.7c0.7,0.7,1.9,0.7,2.7,0c0.7-0.7,0.7-1.9,0-2.7
	C147.6,150.2,146.4,150.2,145.7,151"/>
<circle id="XMLID_303_" class="st2" cx="147" cy="152.3" r="1.9"/>
<path id="XMLID_302_" class="st1" d="M141.4,153.1c-0.6,0.6-0.6,1.6,0,2.3c0.6,0.6,1.6,0.6,2.3,0s0.6-1.6,0-2.3
	C143,152.5,142,152.5,141.4,153.1"/>
<circle id="XMLID_301_" class="st2" cx="142.5" cy="154.2" r="1.6"/>
<path id="XMLID_300_" class="st1" d="M99.1,153c-0.7,0.7-0.7,1.9,0,2.7c0.7,0.7,1.9,0.7,2.7,0c0.7-0.7,0.7-1.9,0-2.7
	C101,152.3,99.8,152.3,99.1,153"/>
<circle id="XMLID_299_" class="st2" cx="100.4" cy="154.4" r="1.9"/>
<path id="XMLID_298_" class="st0" d="M132.3,82.1c0,0,24.1-7.4,15.8-15.8"/>
<path id="XMLID_297_" class="st0" d="M135.3,86.1c0,0,15.6,7.9,15.4-0.3C150.6,77.6,135.3,86.1,135.3,86.1z"/>
<path id="XMLID_296_" class="st0" d="M99.3,138.1c0,0,24-10.9,43.6,2.6c0,0-8.1-6.7-17.4,0.6C116.3,148.6,104.2,153.2,99.3,138.1z"
	/>
<path id="XMLID_295_" class="st0" d="M135.4,122.1c8.1-2.5,15,5.9,19.8,11.8c5.4,6.6,17.2,7.9,17.2,7.9"/>
<path id="XMLID_294_" class="st0" d="M130.5,145.1c0,0-14.7,4.8-17.5,19.2"/>
<path id="XMLID_293_" class="st1" d="M150.8,145.6c-2,2-2,5.3,0,7.3s5.3,2,7.3,0s2-5.3,0-7.3S152.8,143.6,150.8,145.6"/>
<circle id="XMLID_292_" class="st2" cx="154.5" cy="149.2" r="5.1"/>
<path id="XMLID_291_" class="st0" d="M137.9,153.4c0,0-7.9-7-17.8,7.8"/>
<path id="XMLID_290_" class="st0" d="M154.6,126.8c0.3-0.2,8.3-5.7,10.9-17.8c0,0-8.1-7.6-19.4-8.5"/>
<path id="XMLID_289_" class="st0" d="M146.6,120.9c0.4-0.4,8.1-2.5,14.7-10.7c0,0-9.8-2.1-17.6-1.3"/>
<path id="XMLID_288_" class="st1" d="M152.6,64.5c0.7-0.7,0.7-1.9,0-2.7l0,0l0,0c-0.7-0.7-1.9-0.7-2.7,0c-0.7,0.7-0.7,1.9,0,2.7l0,0
	l0,0l0,0C150.6,65.3,151.8,65.3,152.6,64.5"/>
<path id="XMLID_287_" class="st2" d="M152.6,64.5c0.7-0.7,0.7-1.9,0-2.7l0,0l0,0c-0.7-0.7-1.9-0.7-2.7,0c-0.7,0.7-0.7,1.9,0,2.7l0,0
	l0,0l0,0C150.6,65.3,151.8,65.3,152.6,64.5z"/>
<path id="XMLID_286_" class="st0" d="M90.7,176.9c0,0,15.3-3.2,18.8,13.2c3.6,16.4,11.6,22.3,11.6,22.3"/>
<path id="XMLID_285_" class="st0" d="M98.2,212.4c0,0,15-8.7,15,0"/>
<path id="XMLID_284_" class="st0" d="M98.2,206.1c0,0,10.9-1.3,9.2-5.5C105.7,196.4,98.2,206.1,98.2,206.1z"/>
<path id="XMLID_283_" class="st0" d="M119.6,204.3c0,0,62.5-32.8,62.5,8.1"/>
<path id="XMLID_282_" class="st0" d="M127.3,212.4c0,0,43.2-17.4,43.2,0"/>
<path id="XMLID_281_" class="st0" d="M123.2,208.5c0,0,53.5-25.3,53.5,3.9"/>
<path id="XMLID_280_" class="st1" d="M118,201c-1.1,0-1.9-0.9-1.9-1.9c0-1.1,0.9-1.9,1.9-1.9s1.9,0.9,1.9,1.9S119.1,201,118,201"/>
<circle id="XMLID_279_" class="st2" cx="118" cy="199.1" r="1.9"/>
<path id="XMLID_278_" class="st1" d="M183.8,199.1c-1.1,0-1.9-0.9-1.9-1.9c0-1.1,0.8-1.9,1.9-1.9c1,0,1.9,0.9,1.9,1.9
	C185.7,198.2,184.8,199.1,183.8,199.1"/>
<circle id="XMLID_277_" class="st2" cx="183.8" cy="197.2" r="1.9"/>
<path id="XMLID_276_" class="st1" d="M180.2,194.7c-1.1,0-1.9-0.9-1.9-1.9c0-1.1,0.9-1.9,1.9-1.9s1.9,0.9,1.9,1.9
	C182.1,193.9,181.2,194.7,180.2,194.7"/>
<circle id="XMLID_275_" class="st2" cx="180.2" cy="192.8" r="1.9"/>
<path id="XMLID_274_" class="st1" d="M175.4,191.6c-1.1,0-1.9-0.9-1.9-1.9c0-1.1,0.9-1.9,1.9-1.9s1.9,0.9,1.9,1.9
	C177.3,190.7,176.5,191.6,175.4,191.6"/>
<circle id="XMLID_273_" class="st2" cx="175.4" cy="189.7" r="1.9"/>
<path id="XMLID_272_" class="st1" d="M169.9,189.7c-1.1,0-1.9-0.9-1.9-1.9c0-1.1,0.9-1.9,1.9-1.9s1.9,0.9,1.9,1.9
	C171.8,188.8,171,189.7,169.9,189.7"/>
<circle id="XMLID_271_" class="st2" cx="169.9" cy="187.8" r="1.9"/>
<path id="XMLID_270_" class="st1" d="M164,188.9c-1.1,0-1.9-0.9-1.9-1.9c0-1.1,0.9-1.9,1.9-1.9s1.9,0.9,1.9,1.9S165,188.9,164,188.9
	"/>
<circle id="XMLID_269_" class="st2" cx="164" cy="187" r="1.9"/>
<path id="XMLID_268_" class="st1" d="M158.3,188.9c-1.1,0-1.9-0.9-1.9-1.9c0-1.1,0.9-1.9,1.9-1.9s1.9,0.9,1.9,1.9
	S159.4,188.9,158.3,188.9"/>
<circle id="XMLID_267_" class="st2" cx="158.3" cy="187" r="1.9"/>
<path id="XMLID_266_" class="st1" d="M152.7,189.7c-1.1,0-1.9-0.9-1.9-1.9c0-1.1,0.8-1.9,1.9-1.9c1,0,1.9,0.9,1.9,1.9
	C154.6,188.8,153.7,189.7,152.7,189.7"/>
<circle id="XMLID_265_" class="st2" cx="152.7" cy="187.8" r="1.9"/>
<path id="XMLID_264_" class="st1" d="M147,191.1c-1.1,0-1.9-0.9-1.9-1.9c0-1.1,0.9-1.9,1.9-1.9c1.1,0,1.9,0.9,1.9,1.9
	C148.9,190.3,148.1,191.1,147,191.1"/>
<circle id="XMLID_263_" class="st2" cx="147" cy="189.2" r="1.9"/>
<path id="XMLID_262_" class="st1" d="M142,192.2c-0.8,0-1.5-0.7-1.5-1.5s0.7-1.5,1.5-1.5s1.5,0.7,1.5,1.5S142.8,192.2,142,192.2"/>
<circle id="XMLID_261_" class="st2" cx="142" cy="190.7" r="1.5"/>
<path id="XMLID_260_" class="st1" d="M137.9,193.6c-0.7,0-1.2-0.5-1.2-1.2s0.5-1.2,1.2-1.2s1.2,0.6,1.2,1.2S138.6,193.6,137.9,193.6
	"/>
<circle id="XMLID_259_" class="st2" cx="137.9" cy="192.4" r="1.2"/>
<path id="XMLID_258_" class="st1" d="M134.5,195.1c-0.5,0-0.9-0.4-0.9-0.9s0.4-0.9,0.9-0.9s0.9,0.4,0.9,0.9
	C135.5,194.7,135.1,195.1,134.5,195.1"/>
<circle id="XMLID_257_" class="st2" cx="134.5" cy="194.2" r="0.9"/>
<path id="XMLID_256_" class="st1" d="M131.7,196.1c-0.4,0-0.7-0.3-0.7-0.7s0.3-0.7,0.7-0.7s0.7,0.3,0.7,0.7S132.1,196.1,131.7,196.1
	"/>
<circle id="XMLID_255_" class="st2" cx="131.7" cy="195.4" r="0.7"/>
<path id="XMLID_254_" class="st1" d="M115.9,196.1c-1.1,0-1.9-0.9-1.9-1.9c0-1.1,0.9-1.9,1.9-1.9c1.1,0,1.9,0.9,1.9,1.9
	C117.8,195.3,116.9,196.1,115.9,196.1"/>
<circle id="XMLID_253_" class="st2" cx="115.9" cy="194.2" r="1.9"/>
<path id="XMLID_252_" class="st1" d="M199.4,194.9c-1.1,0-1.9-0.9-1.9-1.9c0-1.1,0.8-1.9,1.9-1.9c1,0,1.9,0.9,1.9,1.9
	C201.3,194,200.4,194.9,199.4,194.9"/>
<circle id="XMLID_251_" class="st2" cx="199.4" cy="193" r="1.9"/>
<path id="XMLID_250_" class="st1" d="M114.2,191c-1.1,0-1.9-0.9-1.9-1.9c0-1.1,0.9-1.9,1.9-1.9c1.1,0,1.9,0.9,1.9,1.9
	S115.3,191,114.2,191"/>
<circle id="XMLID_249_" class="st2" cx="114.2" cy="189.1" r="1.9"/>
<path id="XMLID_248_" class="st1" d="M162.6,147.8c-1.1,0-1.9-0.9-1.9-1.9c0-1.1,0.9-1.9,1.9-1.9s1.9,0.9,1.9,1.9
	C164.5,147,163.6,147.8,162.6,147.8"/>
<circle id="XMLID_247_" class="st2" cx="162.6" cy="145.9" r="1.9"/>
<path id="XMLID_246_" class="st1" d="M147.1,154.2c-1.1,0-1.9-0.9-1.9-1.9c0-1.1,0.9-1.9,1.9-1.9c1.1,0,1.9,0.9,1.9,1.9
	C149,153.4,148.1,154.2,147.1,154.2"/>
<circle id="XMLID_245_" class="st2" cx="147.1" cy="152.3" r="1.9"/>
<path id="XMLID_244_" class="st1" d="M142.5,155.8c-0.9,0-1.6-0.7-1.6-1.6c0-0.9,0.7-1.6,1.6-1.6c0.9,0,1.6,0.7,1.6,1.6
	S143.4,155.8,142.5,155.8"/>
<circle id="XMLID_243_" class="st2" cx="142.5" cy="154.2" r="1.6"/>
<path id="XMLID_242_" class="st1" d="M112.7,185.7c-1.1,0-1.9-0.9-1.9-1.9c0-1.1,0.9-1.9,1.9-1.9s1.9,0.9,1.9,1.9
	C114.6,184.9,113.7,185.7,112.7,185.7"/>
<circle id="XMLID_241_" class="st2" cx="112.7" cy="183.8" r="1.9"/>
<path id="XMLID_240_" class="st0" d="M186.3,212.4c0,0,22.3-11.8,22.3,0"/>
<path id="XMLID_239_" class="st0" d="M185.7,207.5c0,0,5.4-16.6,11.1-10.7C202.5,202.6,185.7,207.5,185.7,207.5z"/>
<path id="XMLID_238_" class="st0" d="M123.4,196.1c0,0,24.7-9.3,29-32.6c0,0-1,10.5-12.7,11.8C128.1,176.7,116.2,182,123.4,196.1z"
	/>
<path id="XMLID_237_" class="st0" d="M160.2,181.9c7.6-4,6.4-14.7,5.7-22.3c-0.9-8.5,6.6-17.8,6.6-17.8"/>
<path id="XMLID_236_" class="st0" d="M140.6,169.1c0,0-13.8,7-26-1.2"/>
<path id="XMLID_235_" class="st1" d="M154.6,154.4c-2.8,0-5.1-2.3-5.1-5.1s2.3-5.1,5.1-5.1s5.1,2.3,5.1,5.1
	C159.7,152.1,157.4,154.4,154.6,154.4"/>
<circle id="XMLID_234_" class="st2" cx="154.6" cy="149.3" r="5.1"/>
<path id="XMLID_233_" class="st0" d="M139.9,158c0,0-0.6,10.6-18.1,7.1"/>
<path id="XMLID_232_" class="st0" d="M170.5,165.1c0.3-0.1,9.9-1.8,20.3,4.9c0,0-0.3,11.1-7.7,19.8"/>
<path id="XMLID_231_" class="st0" d="M169,174.8c0.6,0,7.5-3.9,17.9-2.8c0,0-5.5,8.4-11.5,13.4"/>
<path id="XMLID_230_" class="st0" d="M90.7,247.9c0,0,15.3,3.2,18.8-13.2c3.6-16.4,11.6-22.3,11.6-22.3"/>
<path id="XMLID_229_" class="st0" d="M98.2,212.4c0,0,15,8.7,15,0"/>
<path id="XMLID_228_" class="st0" d="M98.2,218.7c0,0,10.9,1.3,9.2,5.5C105.7,228.4,98.2,218.7,98.2,218.7z"/>
<path id="XMLID_227_" class="st0" d="M119.6,220.5c0,0,62.5,32.8,62.5-8.1"/>
<path id="XMLID_226_" class="st0" d="M127.3,212.4c0,0,43.2,17.4,43.2,0"/>
<path id="XMLID_225_" class="st0" d="M123.2,216.3c0,0,53.5,25.3,53.5-3.9"/>
<path id="XMLID_224_" class="st1" d="M118,223.8c-1.1,0-1.9,0.9-1.9,1.9c0,1.1,0.9,1.9,1.9,1.9s1.9-0.9,1.9-1.9
	S119.1,223.8,118,223.8"/>
<circle id="XMLID_223_" class="st2" cx="118" cy="225.7" r="1.9"/>
<path id="XMLID_222_" class="st1" d="M183.8,225.7c-1.1,0-1.9,0.9-1.9,1.9c0,1.1,0.8,1.9,1.9,1.9c1,0,1.9-0.9,1.9-1.9
	C185.7,226.6,184.8,225.7,183.8,225.7"/>
<circle id="XMLID_221_" class="st2" cx="183.8" cy="227.6" r="1.9"/>
<path id="XMLID_220_" class="st1" d="M180.2,230.1c-1.1,0-1.9,0.9-1.9,1.9c0,1.1,0.9,1.9,1.9,1.9s1.9-0.9,1.9-1.9
	C182.1,230.9,181.2,230.1,180.2,230.1"/>
<circle id="XMLID_219_" class="st2" cx="180.2" cy="232" r="1.9"/>
<path id="XMLID_218_" class="st1" d="M175.4,233.2c-1.1,0-1.9,0.9-1.9,1.9c0,1.1,0.9,1.9,1.9,1.9s1.9-0.9,1.9-1.9
	C177.3,234.1,176.5,233.2,175.4,233.2"/>
<circle id="XMLID_217_" class="st2" cx="175.4" cy="235.1" r="1.9"/>
<path id="XMLID_216_" class="st1" d="M169.9,235.1c-1.1,0-1.9,0.9-1.9,1.9c0,1.1,0.9,1.9,1.9,1.9s1.9-0.9,1.9-1.9
	C171.8,236,171,235.1,169.9,235.1"/>
<circle id="XMLID_215_" class="st2" cx="169.9" cy="237" r="1.9"/>
<path id="XMLID_214_" class="st1" d="M164,235.9c-1.1,0-1.9,0.9-1.9,1.9c0,1.1,0.9,1.9,1.9,1.9s1.9-0.9,1.9-1.9
	C165.9,236.8,165,235.9,164,235.9"/>
<circle id="XMLID_213_" class="st2" cx="164" cy="237.8" r="1.9"/>
<path id="XMLID_212_" class="st1" d="M158.3,235.9c-1.1,0-1.9,0.9-1.9,1.9c0,1.1,0.9,1.9,1.9,1.9s1.9-0.9,1.9-1.9
	C160.2,236.8,159.4,235.9,158.3,235.9"/>
<circle id="XMLID_211_" class="st2" cx="158.3" cy="237.8" r="1.9"/>
<path id="XMLID_210_" class="st1" d="M152.7,235.1c-1.1,0-1.9,0.9-1.9,1.9c0,1.1,0.8,1.9,1.9,1.9c1,0,1.9-0.9,1.9-1.9
	C154.6,236,153.7,235.1,152.7,235.1"/>
<circle id="XMLID_209_" class="st2" cx="152.7" cy="237" r="1.9"/>
<path id="XMLID_208_" class="st1" d="M147,233.7c-1.1,0-1.9,0.9-1.9,1.9c0,1.1,0.9,1.9,1.9,1.9c1.1,0,1.9-0.9,1.9-1.9
	C148.9,234.5,148.1,233.7,147,233.7"/>
<circle id="XMLID_207_" class="st2" cx="147" cy="235.6" r="1.9"/>
<path id="XMLID_206_" class="st1" d="M142,232.6c-0.8,0-1.5,0.7-1.5,1.5s0.7,1.5,1.5,1.5s1.5-0.7,1.5-1.5S142.8,232.6,142,232.6"/>
<circle id="XMLID_205_" class="st2" cx="142" cy="234.1" r="1.5"/>
<path id="XMLID_204_" class="st1" d="M137.9,231.2c-0.7,0-1.2,0.6-1.2,1.2s0.5,1.2,1.2,1.2s1.2-0.6,1.2-1.2S138.6,231.2,137.9,231.2
	"/>
<circle id="XMLID_203_" class="st2" cx="137.9" cy="232.4" r="1.2"/>
<path id="XMLID_202_" class="st1" d="M134.5,229.7c-0.5,0-0.9,0.4-0.9,0.9s0.4,0.9,0.9,0.9s0.9-0.4,0.9-0.9
	C135.5,230.1,135.1,229.7,134.5,229.7"/>
<circle id="XMLID_201_" class="st2" cx="134.5" cy="230.6" r="0.9"/>
<path id="XMLID_200_" class="st1" d="M131.7,228.7c-0.4,0-0.7,0.3-0.7,0.7s0.3,0.7,0.7,0.7s0.7-0.3,0.7-0.7S132.1,228.7,131.7,228.7
	"/>
<circle id="XMLID_199_" class="st2" cx="131.7" cy="229.4" r="0.7"/>
<path id="XMLID_198_" class="st1" d="M115.9,228.7c-1.1,0-1.9,0.9-1.9,1.9c0,1.1,0.9,1.9,1.9,1.9c1.1,0,1.9-0.9,1.9-1.9
	C117.8,229.5,116.9,228.7,115.9,228.7"/>
<circle id="XMLID_197_" class="st2" cx="115.9" cy="230.6" r="1.9"/>
<path id="XMLID_196_" class="st1" d="M199.4,229.9c-1.1,0-1.9,0.9-1.9,1.9c0,1.1,0.8,1.9,1.9,1.9c1,0,1.9-0.9,1.9-1.9
	C201.3,230.8,200.4,229.9,199.4,229.9"/>
<circle id="XMLID_195_" class="st2" cx="199.4" cy="231.8" r="1.9"/>
<path id="XMLID_194_" class="st1" d="M114.2,233.8c-1.1,0-1.9,0.9-1.9,1.9c0,1.1,0.9,1.9,1.9,1.9c1.1,0,1.9-0.9,1.9-1.9
	S115.3,233.8,114.2,233.8"/>
<circle id="XMLID_193_" class="st2" cx="114.2" cy="235.7" r="1.9"/>
<path id="XMLID_192_" class="st1" d="M162.6,277c-1.1,0-1.9,0.9-1.9,1.9c0,1.1,0.9,1.9,1.9,1.9s1.9-0.9,1.9-1.9
	C164.5,277.8,163.6,277,162.6,277"/>
<circle id="XMLID_191_" class="st2" cx="162.6" cy="278.9" r="1.9"/>
<path id="XMLID_190_" class="st1" d="M147.1,270.6c-1.1,0-1.9,0.9-1.9,1.9s0.9,1.9,1.9,1.9c1.1,0,1.9-0.9,1.9-1.9
	C149,271.4,148.1,270.6,147.1,270.6"/>
<circle id="XMLID_189_" class="st2" cx="147.1" cy="272.5" r="1.9"/>
<path id="XMLID_188_" class="st1" d="M142.5,269c-0.9,0-1.6,0.7-1.6,1.6s0.7,1.6,1.6,1.6c0.9,0,1.6-0.7,1.6-1.6S143.4,269,142.5,269
	"/>
<circle id="XMLID_187_" class="st2" cx="142.5" cy="270.6" r="1.6"/>
<path id="XMLID_186_" class="st1" d="M112.7,239.1c-1.1,0-1.9,0.9-1.9,1.9c0,1.1,0.9,1.9,1.9,1.9s1.9-0.9,1.9-1.9
	C114.6,239.9,113.7,239.1,112.7,239.1"/>
<circle id="XMLID_185_" class="st2" cx="112.7" cy="241" r="1.9"/>
<path id="XMLID_184_" class="st0" d="M186.3,212.4c0,0,22.3,11.8,22.3,0"/>
<path id="XMLID_183_" class="st0" d="M185.7,217.3c0,0,5.4,16.6,11.1,10.7C202.5,222.2,185.7,217.3,185.7,217.3z"/>
<path id="XMLID_182_" class="st0" d="M123.4,228.7c0,0,24.7,9.3,29,32.6c0,0-1-10.5-12.7-11.8C128.1,248.1,116.2,242.8,123.4,228.7z
	"/>
<path id="XMLID_181_" class="st0" d="M160.2,242.9c7.6,4,6.4,14.7,5.7,22.3c-0.9,8.5,6.6,17.8,6.6,17.8"/>
<path id="XMLID_180_" class="st0" d="M140.6,255.7c0,0-13.8-7-26,1.2"/>
<path id="XMLID_179_" class="st1" d="M154.6,270.4c-2.8,0-5.1,2.3-5.1,5.1c0,2.8,2.3,5.1,5.1,5.1s5.1-2.3,5.1-5.1
	C159.7,272.7,157.4,270.4,154.6,270.4"/>
<circle id="XMLID_178_" class="st2" cx="154.6" cy="275.5" r="5.1"/>
<path id="XMLID_177_" class="st0" d="M139.9,266.8c0,0-0.6-10.5-18.1-7.1"/>
<path id="XMLID_176_" class="st0" d="M170.5,259.7c0.3,0.1,9.9,1.8,20.3-4.9c0,0-0.3-11.1-7.7-19.8"/>
<path id="XMLID_175_" class="st0" d="M169,250c0.6,0,7.5,3.9,17.9,2.8c0,0-5.5-8.4-11.5-13.4"/>
<path id="XMLID_174_" class="st1" d="M213.1,214.3c1,0,1.9-0.8,1.9-1.9l0,0l0,0c0-1-0.9-1.9-1.9-1.9s-1.9,0.8-1.9,1.9l0,0l0,0l0,0
	l0,0C211.2,213.5,212,214.3,213.1,214.3"/>
<path id="XMLID_173_" class="st2" d="M213.1,214.3c1,0,1.9-0.8,1.9-1.9l0,0l0,0c0-1-0.9-1.9-1.9-1.9s-1.9,0.8-1.9,1.9l0,0l0,0l0,0
	l0,0C211.2,213.5,212,214.3,213.1,214.3z"/>
<path id="XMLID_172_" class="st0" d="M89.9,250c0,0,13.1,8.5,4,22.7c-9.1,14.1-7.5,24-7.5,24"/>
<path id="XMLID_171_" class="st0" d="M70.1,280.4c0,0,16.8,4.4,10.6,10.6"/>
<path id="XMLID_170_" class="st0" d="M74.5,276c0,0,8.6,6.8,10.4,2.6C86.7,274.4,74.5,276,74.5,276z"/>
<path id="XMLID_169_" class="st0" d="M91,289.8c0,0,67.4,21,38.4,49.9"/>
<path id="XMLID_168_" class="st0" d="M90.7,300.9c0,0,42.9,18.3,30.6,30.6"/>
<path id="XMLID_167_" class="st0" d="M90.5,295.3c0,0,55.8,20,35.1,40.6"/>
<path id="XMLID_166_" class="st1" d="M92.2,286.4c-0.7-0.7-0.7-1.9,0-2.7c0.7-0.7,1.9-0.7,2.7,0c0.7,0.7,0.7,1.9,0,2.7
	C94.1,287.1,92.9,287.1,92.2,286.4"/>
<circle id="XMLID_165_" class="st2" cx="93.5" cy="285" r="1.9"/>
<path id="XMLID_164_" class="st1" d="M140,331.5c-0.7-0.7-0.7-1.9,0-2.7c0.7-0.7,1.9-0.7,2.7,0c0.7,0.7,0.7,1.9,0,2.7
	C141.9,332.3,140.7,332.3,140,331.5"/>
<circle id="XMLID_163_" class="st2" cx="141.3" cy="330.2" r="1.9"/>
<path id="XMLID_162_" class="st1" d="M140.5,325.9c-0.7-0.7-0.7-1.9,0-2.7c0.7-0.7,1.9-0.7,2.7,0c0.7,0.7,0.7,1.9,0,2.7
	C142.5,326.6,141.3,326.6,140.5,325.9"/>
<circle id="XMLID_161_" class="st2" cx="141.9" cy="324.6" r="1.9"/>
<path id="XMLID_160_" class="st1" d="M139.4,320.3c-0.7-0.7-0.7-1.9,0-2.7c0.7-0.7,1.9-0.7,2.7,0c0.7,0.7,0.7,1.9,0,2.7
	C141.3,321.1,140.1,321.1,139.4,320.3"/>
<circle id="XMLID_159_" class="st2" cx="140.7" cy="319" r="1.9"/>
<path id="XMLID_158_" class="st1" d="M136.9,315.1c-0.7-0.7-0.7-1.9,0-2.7c0.7-0.7,1.9-0.7,2.7,0c0.7,0.7,0.7,1.9,0,2.7
	C138.8,315.8,137.6,315.8,136.9,315.1"/>
<circle id="XMLID_157_" class="st2" cx="138.2" cy="313.7" r="1.9"/>
<path id="XMLID_156_" class="st1" d="M133.2,310.3c-0.7-0.7-0.7-1.9,0-2.7c0.7-0.7,1.9-0.7,2.7,0c0.7,0.7,0.7,1.9,0,2.7
	S134,311.1,133.2,310.3"/>
<circle id="XMLID_155_" class="st2" cx="134.6" cy="309" r="1.9"/>
<path id="XMLID_154_" class="st1" d="M129.2,306.3c-0.7-0.7-0.7-1.9,0-2.7c0.7-0.7,1.9-0.7,2.7,0c0.7,0.7,0.7,1.9,0,2.7
	S130,307.1,129.2,306.3"/>
<circle id="XMLID_153_" class="st2" cx="130.6" cy="305" r="1.9"/>
<path id="XMLID_152_" class="st1" d="M124.6,302.9c-0.7-0.7-0.7-1.9,0-2.7c0.7-0.7,1.9-0.7,2.7,0c0.7,0.7,0.7,1.9,0,2.7
	C126.6,303.6,125.4,303.6,124.6,302.9"/>
<circle id="XMLID_151_" class="st2" cx="126" cy="301.5" r="1.9"/>
<path id="XMLID_150_" class="st1" d="M119.6,299.9c-0.7-0.7-0.7-1.9,0-2.7c0.7-0.7,1.9-0.7,2.7,0c0.7,0.7,0.7,1.9,0,2.7
	C121.6,300.6,120.4,300.6,119.6,299.9"/>
<circle id="XMLID_149_" class="st2" cx="121" cy="298.5" r="1.9"/>
<path id="XMLID_148_" class="st1" d="M115.4,297.1c-0.6-0.6-0.6-1.5,0-2.1s1.5-0.6,2.1,0s0.6,1.5,0,2.1S116,297.7,115.4,297.1"/>
<circle id="XMLID_147_" class="st2" cx="116.4" cy="296.1" r="1.5"/>
<path id="XMLID_146_" class="st1" d="M111.4,295.2c-0.5-0.5-0.5-1.3,0-1.7c0.5-0.5,1.3-0.5,1.7,0c0.5,0.5,0.5,1.3,0,1.7
	C112.7,295.7,111.9,295.7,111.4,295.2"/>
<circle id="XMLID_145_" class="st2" cx="112.3" cy="294.4" r="1.2"/>
<path id="XMLID_144_" class="st1" d="M108,293.9c-0.4-0.4-0.4-1,0-1.3c0.4-0.4,1-0.4,1.3,0c0.4,0.4,0.4,1,0,1.3
	C108.9,294.3,108.3,294.3,108,293.9"/>
<circle id="XMLID_143_" class="st2" cx="108.6" cy="293.2" r="0.9"/>
<path id="XMLID_142_" class="st1" d="M105.3,292.6c-0.3-0.3-0.3-0.7,0-1s0.7-0.3,1,0s0.3,0.7,0,1C106,292.8,105.6,292.8,105.3,292.6
	"/>
<circle id="XMLID_141_" class="st2" cx="105.8" cy="292.1" r="0.7"/>
<path id="XMLID_140_" class="st1" d="M94.1,281.4c-0.7-0.7-0.7-1.9,0-2.7c0.7-0.7,1.9-0.7,2.7,0c0.7,0.7,0.7,1.9,0,2.7
	C96,282.1,94.8,282.1,94.1,281.4"/>
<circle id="XMLID_139_" class="st2" cx="95.4" cy="280" r="1.9"/>
<path id="XMLID_138_" class="st1" d="M154,339.6c-0.7-0.7-0.7-1.9,0-2.7c0.7-0.7,1.9-0.7,2.7,0c0.7,0.7,0.7,1.9,0,2.7
	C156,340.3,154.7,340.3,154,339.6"/>
<circle id="XMLID_137_" class="st2" cx="155.3" cy="338.2" r="1.9"/>
<path id="XMLID_136_" class="st1" d="M96.6,276.6c-0.7-0.7-0.7-1.9,0-2.7c0.7-0.7,1.9-0.7,2.7,0c0.7,0.7,0.7,1.9,0,2.7
	C98.5,277.3,97.3,277.3,96.6,276.6"/>
<circle id="XMLID_135_" class="st2" cx="97.9" cy="275.2" r="1.9"/>
<path id="XMLID_134_" class="st1" d="M161.2,280.3c-0.7-0.7-0.7-1.9,0-2.7c0.7-0.7,1.9-0.7,2.7,0c0.7,0.7,0.7,1.9,0,2.7
	C163.2,281,162,281,161.2,280.3"/>
<circle id="XMLID_133_" class="st2" cx="162.6" cy="278.9" r="1.9"/>
<path id="XMLID_132_" class="st1" d="M145.8,273.8c-0.7-0.7-0.7-1.9,0-2.7c0.7-0.7,1.9-0.7,2.7,0c0.7,0.7,0.7,1.9,0,2.7
	C147.7,274.6,146.5,274.6,145.8,273.8"/>
<circle id="XMLID_131_" class="st2" cx="147.1" cy="272.5" r="1.9"/>
<path id="XMLID_130_" class="st1" d="M141.4,271.7c-0.6-0.6-0.6-1.6,0-2.3c0.6-0.6,1.6-0.6,2.3,0c0.6,0.6,0.6,1.6,0,2.3
	C143.1,272.4,142.1,272.4,141.4,271.7"/>
<circle id="XMLID_129_" class="st2" cx="142.6" cy="270.6" r="1.6"/>
<path id="XMLID_128_" class="st1" d="M99.2,271.8c-0.7-0.7-0.7-1.9,0-2.7c0.7-0.7,1.9-0.7,2.7,0c0.7,0.7,0.7,1.9,0,2.7
	C101.1,272.6,99.9,272.6,99.2,271.8"/>
<circle id="XMLID_127_" class="st2" cx="100.5" cy="270.5" r="1.9"/>
<path id="XMLID_126_" class="st0" d="M132.4,342.7c0,0,24.1,7.4,15.8,15.8"/>
<path id="XMLID_125_" class="st0" d="M135.4,338.8c0,0,15.6-7.9,15.4,0.3C150.7,347.2,135.4,338.8,135.4,338.8z"/>
<path id="XMLID_124_" class="st0" d="M99.4,286.7c0,0,24,10.9,43.6-2.6c0,0-8.1,6.7-17.4-0.6C116.4,276.3,104.3,271.7,99.4,286.7z"
	/>
<path id="XMLID_123_" class="st0" d="M135.5,302.7c8.2,2.5,15-5.9,19.8-11.8c5.4-6.6,17.2-7.9,17.2-7.9"/>
<path id="XMLID_122_" class="st0" d="M130.6,279.8c0,0-14.7-4.8-17.5-19.2"/>
<path id="XMLID_121_" class="st1" d="M150.9,279.3c-2-2-2-5.3,0-7.3s5.3-2,7.3,0s2,5.3,0,7.3S152.9,281.3,150.9,279.3"/>
<circle id="XMLID_120_" class="st2" cx="154.6" cy="275.6" r="5.1"/>
<path id="XMLID_119_" class="st0" d="M138,271.4c0,0-7.9,7-17.8-7.8"/>
<path id="XMLID_118_" class="st0" d="M154.7,298.1c0.3,0.2,8.3,5.7,10.9,17.8c0,0-8.1,7.6-19.4,8.5"/>
<path id="XMLID_117_" class="st0" d="M146.7,303.9c0.4,0.4,8.1,2.5,14.7,10.7c0,0-9.8,2.1-17.6,1.3"/>
<path id="XMLID_116_" class="st0" d="M39.7,300.2c0,0,8.5,13.1,22.7,4c14.1-9.1,24-7.5,24-7.5"/>
<path id="XMLID_115_" class="st0" d="M70.1,280.5c0,0,4.4,16.8,10.6,10.6"/>
<path id="XMLID_114_" class="st0" d="M65.6,284.9c0,0,6.8,8.6,2.6,10.4C64,297,65.6,284.9,65.6,284.9z"/>
<path id="XMLID_113_" class="st0" d="M79.5,301.3c0,0,21,67.4,49.9,38.4"/>
<path id="XMLID_112_" class="st0" d="M90.6,301c0,0,18.3,42.9,30.6,30.6"/>
<path id="XMLID_111_" class="st0" d="M85,300.8c0,0,20,55.8,40.6,35.1"/>
<path id="XMLID_110_" class="st1" d="M76,302.5c-0.7-0.7-1.9-0.7-2.7,0c-0.7,0.7-0.7,1.9,0,2.7c0.7,0.7,1.9,0.7,2.7,0
	C76.8,304.4,76.8,303.2,76,302.5"/>
<circle id="XMLID_109_" class="st2" cx="74.7" cy="303.8" r="1.9"/>
<path id="XMLID_108_" class="st1" d="M121.2,350.3c-0.7-0.7-1.9-0.7-2.7,0c-0.7,0.7-0.7,1.9,0,2.7c0.7,0.7,1.9,0.7,2.7,0
	C121.9,352.3,121.9,351.1,121.2,350.3"/>
<circle id="XMLID_107_" class="st2" cx="119.8" cy="351.7" r="1.9"/>
<path id="XMLID_106_" class="st1" d="M115.6,350.9c-0.7-0.7-1.9-0.7-2.7,0c-0.7,0.7-0.7,1.9,0,2.7c0.7,0.7,1.9,0.7,2.7,0
	C116.3,352.8,116.3,351.6,115.6,350.9"/>
<circle id="XMLID_105_" class="st2" cx="114.2" cy="352.2" r="1.9"/>
<path id="XMLID_104_" class="st1" d="M110,349.7c-0.7-0.7-1.9-0.7-2.7,0c-0.7,0.7-0.7,1.9,0,2.7c0.7,0.7,1.9,0.7,2.7,0
	C110.7,351.7,110.7,350.5,110,349.7"/>
<circle id="XMLID_103_" class="st2" cx="108.6" cy="351.1" r="1.9"/>
<path id="XMLID_102_" class="st1" d="M104.8,347.2c-0.7-0.7-1.9-0.7-2.7,0c-0.7,0.7-0.7,1.9,0,2.7c0.7,0.7,1.9,0.7,2.7,0
	C105.5,349.1,105.5,347.9,104.8,347.2"/>
<circle id="XMLID_101_" class="st2" cx="103.4" cy="348.5" r="1.9"/>
<path id="XMLID_100_" class="st1" d="M100,343.6c-0.7-0.7-1.9-0.7-2.7,0c-0.7,0.7-0.7,1.9,0,2.7c0.7,0.7,1.9,0.7,2.7,0
	C100.7,345.5,100.7,344.3,100,343.6"/>
<circle id="XMLID_99_" class="st2" cx="98.6" cy="344.9" r="1.9"/>
<path id="XMLID_98_" class="st1" d="M96,339.5c-0.7-0.7-1.9-0.7-2.7,0c-0.7,0.7-0.7,1.9,0,2.7c0.7,0.7,1.9,0.7,2.7,0
	C96.7,341.5,96.7,340.3,96,339.5"/>
<circle id="XMLID_97_" class="st2" cx="94.6" cy="340.9" r="1.9"/>
<path id="XMLID_96_" class="st1" d="M92.5,335c-0.7-0.7-1.9-0.7-2.7,0c-0.7,0.7-0.7,1.9,0,2.7c0.7,0.7,1.9,0.7,2.7,0
	C93.3,336.9,93.3,335.7,92.5,335"/>
<circle id="XMLID_95_" class="st2" cx="91.2" cy="336.3" r="1.9"/>
<path id="XMLID_94_" class="st1" d="M89.6,330c-0.7-0.7-1.9-0.7-2.7,0c-0.7,0.7-0.7,1.9,0,2.7c0.7,0.7,1.9,0.7,2.7,0
	C90.3,331.9,90.3,330.7,89.6,330"/>
<circle id="XMLID_93_" class="st2" cx="88.2" cy="331.3" r="1.9"/>
<path id="XMLID_92_" class="st1" d="M86.8,325.7c-0.6-0.6-1.5-0.6-2.1,0s-0.6,1.5,0,2.1s1.5,0.6,2.1,0
	C87.3,327.2,87.3,326.3,86.8,325.7"/>
<circle id="XMLID_91_" class="st2" cx="85.7" cy="326.7" r="1.5"/>
<path id="XMLID_90_" class="st1" d="M84.9,321.8c-0.5-0.5-1.3-0.5-1.7,0c-0.5,0.5-0.5,1.3,0,1.7c0.5,0.5,1.3,0.5,1.7,0
	C85.4,323,85.4,322.2,84.9,321.8"/>
<circle id="XMLID_89_" class="st2" cx="84" cy="322.6" r="1.2"/>
<path id="XMLID_88_" class="st1" d="M83.6,318.3c-0.4-0.4-1-0.4-1.3,0c-0.4,0.4-0.4,1,0,1.3c0.4,0.4,1,0.4,1.3,0
	C83.9,319.3,83.9,318.7,83.6,318.3"/>
<circle id="XMLID_87_" class="st2" cx="82.9" cy="319" r="0.9"/>
<path id="XMLID_86_" class="st1" d="M82.2,315.6c-0.3-0.3-0.7-0.3-1,0s-0.3,0.7,0,1s0.7,0.3,1,0C82.5,316.3,82.5,315.9,82.2,315.6"
	/>
<circle id="XMLID_85_" class="st2" cx="81.8" cy="316.1" r="0.7"/>
<path id="XMLID_84_" class="st1" d="M71.1,304.4c-0.7-0.7-1.9-0.7-2.7,0c-0.7,0.7-0.7,1.9,0,2.7c0.7,0.7,1.9,0.7,2.7,0
	C71.8,306.4,71.8,305.2,71.1,304.4"/>
<circle id="XMLID_83_" class="st2" cx="69.7" cy="305.8" r="1.9"/>
<path id="XMLID_82_" class="st1" d="M129.2,364.3c-0.7-0.7-1.9-0.7-2.7,0c-0.7,0.7-0.7,1.9,0,2.7c0.7,0.7,1.9,0.7,2.7,0
	S130,365.1,129.2,364.3"/>
<circle id="XMLID_81_" class="st2" cx="127.9" cy="365.7" r="1.9"/>
<path id="XMLID_80_" class="st1" d="M66.2,306.9c-0.7-0.7-1.9-0.7-2.7,0c-0.7,0.7-0.7,1.9,0,2.7c0.7,0.7,1.9,0.7,2.7,0
	C67,308.8,67,307.6,66.2,306.9"/>
<circle id="XMLID_79_" class="st2" cx="64.9" cy="308.2" r="1.9"/>
<path id="XMLID_78_" class="st1" d="M69.9,371.6c-0.7-0.7-1.9-0.7-2.7,0c-0.7,0.7-0.7,1.9,0,2.7c0.7,0.7,1.9,0.7,2.7,0
	C70.7,373.5,70.7,372.3,69.9,371.6"/>
<circle id="XMLID_77_" class="st2" cx="68.6" cy="372.9" r="1.9"/>
<path id="XMLID_76_" class="st1" d="M63.5,356.1c-0.7-0.7-1.9-0.7-2.7,0c-0.7,0.7-0.7,1.9,0,2.7c0.7,0.7,1.9,0.7,2.7,0
	C64.3,358.1,64.3,356.9,63.5,356.1"/>
<circle id="XMLID_75_" class="st2" cx="62.2" cy="357.5" r="1.9"/>
<path id="XMLID_74_" class="st1" d="M61.4,351.8c-0.6-0.6-1.6-0.6-2.3,0c-0.6,0.6-0.6,1.6,0,2.3c0.6,0.6,1.6,0.6,2.3,0
	C62,353.4,62,352.4,61.4,351.8"/>
<circle id="XMLID_73_" class="st2" cx="60.3" cy="352.9" r="1.6"/>
<path id="XMLID_72_" class="st1" d="M61.5,309.5c-0.7-0.7-1.9-0.7-2.7,0c-0.7,0.7-0.7,1.9,0,2.7c0.7,0.7,1.9,0.7,2.7,0
	C62.2,311.5,62.2,310.3,61.5,309.5"/>
<circle id="XMLID_71_" class="st2" cx="60.1" cy="310.9" r="1.9"/>
<path id="XMLID_70_" class="st0" d="M132.4,342.7c0,0,7.4,24.1,15.8,15.8"/>
<path id="XMLID_69_" class="st0" d="M128.4,345.8c0,0-7.9,15.6,0.3,15.4C136.9,361.1,128.4,345.8,128.4,345.8z"/>
<path id="XMLID_68_" class="st0" d="M76.4,309.8c0,0,10.9,24-2.6,43.6c0,0,6.7-8.1-0.6-17.4C65.9,326.8,61.4,314.6,76.4,309.8z"/>
<path id="XMLID_67_" class="st0" d="M92.4,345.8c2.5,8.2-5.9,15-11.8,19.8c-6.6,5.4-7.9,17.2-7.9,17.2"/>
<path id="XMLID_66_" class="st0" d="M69.4,341c0,0-4.8-14.7-19.2-17.5"/>
<path id="XMLID_65_" class="st1" d="M68.9,361.3c-2-2-5.3-2-7.3,0s-2,5.3,0,7.3s5.3,2,7.3,0C70.9,366.5,70.9,363.3,68.9,361.3"/>
<circle id="XMLID_64_" class="st2" cx="65.3" cy="364.9" r="5.1"/>
<path id="XMLID_63_" class="st0" d="M61.1,348.3c0,0,7-7.9-7.8-17.8"/>
<path id="XMLID_62_" class="st0" d="M87.7,365c0.2,0.3,5.7,8.3,17.8,10.9c0,0,7.6-8.1,8.5-19.4"/>
<path id="XMLID_61_" class="st0" d="M93.6,357c0.4,0.4,2.5,8.1,10.7,14.7c0,0,2.1-9.8,1.3-17.6"/>
<path id="XMLID_60_" class="st1" d="M150,363c0.7,0.7,1.9,0.7,2.7,0l0,0l0,0l0,0l0,0c0.7-0.7,0.7-1.9,0-2.7c-0.7-0.7-1.9-0.7-2.7,0
	l0,0l0,0l0,0l0,0C149.2,361.1,149.2,362.3,150,363"/>
<path id="XMLID_59_" class="st2" d="M150,363c0.7,0.7,1.9,0.7,2.7,0l0,0l0,0l0,0l0,0c0.7-0.7,0.7-1.9,0-2.7c-0.7-0.7-1.9-0.7-2.7,0
	l0,0l0,0l0,0l0,0C149.2,361.1,149.2,362.3,150,363z"/>
<path id="XMLID_58_" class="st0" d="M37.6,301.2c0,0,3.2,15.3-13.2,18.9C8,323.6,2.1,331.6,2.1,331.6"/>
<path id="XMLID_57_" class="st0" d="M2.1,308.6c0,0,8.7,15,0,15"/>
<path id="XMLID_56_" class="st0" d="M8.4,308.6c0,0,1.3,10.9,5.5,9.2C18.1,316.1,8.4,308.6,8.4,308.6z"/>
<path id="XMLID_55_" class="st0" d="M10.2,330c0,0,32.8,62.5-8.1,62.5"/>
<path id="XMLID_54_" class="st0" d="M2.1,337.7c0,0,17.4,43.2,0,43.2"/>
<path id="XMLID_53_" class="st0" d="M6,333.6c0,0,25.3,53.5-3.9,53.5"/>
<path id="XMLID_52_" class="st1" d="M13.5,328.4c0-1,0.9-1.9,1.9-1.9c1.1,0,1.9,0.9,1.9,1.9c0,1.1-0.9,1.9-1.9,1.9
	S13.5,329.5,13.5,328.4"/>
<circle id="XMLID_51_" class="st2" cx="15.4" cy="328.4" r="1.9"/>
<path id="XMLID_50_" class="st1" d="M15.4,394.2c0-1.1,0.9-1.9,1.9-1.9c1.1,0,1.9,0.9,1.9,1.9s-0.9,1.9-1.9,1.9
	S15.4,395.2,15.4,394.2"/>
<circle id="XMLID_49_" class="st2" cx="17.3" cy="394.2" r="1.9"/>
<path id="XMLID_48_" class="st1" d="M19.8,390.6c0-1.1,0.9-1.9,1.9-1.9c1.1,0,1.9,0.9,1.9,1.9s-0.9,1.9-1.9,1.9
	C20.6,392.5,19.8,391.7,19.8,390.6"/>
<circle id="XMLID_47_" class="st2" cx="21.7" cy="390.6" r="1.9"/>
<path id="XMLID_46_" class="st1" d="M22.9,385.9c0-1,0.9-1.9,1.9-1.9c1.1,0,1.9,0.9,1.9,1.9c0,1.1-0.9,1.9-1.9,1.9
	S22.9,386.9,22.9,385.9"/>
<circle id="XMLID_45_" class="st2" cx="24.8" cy="385.9" r="1.9"/>
<path id="XMLID_44_" class="st1" d="M24.8,380.4c0-1,0.9-1.9,1.9-1.9c1.1,0,1.9,0.9,1.9,1.9c0,1.1-0.9,1.9-1.9,1.9
	C25.7,382.3,24.8,381.4,24.8,380.4"/>
<circle id="XMLID_43_" class="st2" cx="26.7" cy="380.4" r="1.9"/>
<path id="XMLID_42_" class="st1" d="M25.6,374.4c0-1.1,0.9-1.9,1.9-1.9c1.1,0,1.9,0.9,1.9,1.9s-0.9,1.9-1.9,1.9
	S25.6,375.5,25.6,374.4"/>
<circle id="XMLID_41_" class="st2" cx="27.5" cy="374.4" r="1.9"/>
<path id="XMLID_40_" class="st1" d="M25.6,368.8c0-1,0.9-1.9,1.9-1.9c1.1,0,1.9,0.9,1.9,1.9c0,1.1-0.9,1.9-1.9,1.9
	C26.5,370.7,25.6,369.8,25.6,368.8"/>
<circle id="XMLID_39_" class="st2" cx="27.5" cy="368.8" r="1.9"/>
<path id="XMLID_38_" class="st1" d="M24.8,363.1c0-1,0.9-1.9,1.9-1.9c1.1,0,1.9,0.9,1.9,1.9c0,1.1-0.9,1.9-1.9,1.9
	C25.7,365,24.8,364.1,24.8,363.1"/>
<circle id="XMLID_37_" class="st2" cx="26.7" cy="363.1" r="1.9"/>
<path id="XMLID_36_" class="st1" d="M23.4,357.4c0-1.1,0.9-1.9,1.9-1.9c1.1,0,1.9,0.9,1.9,1.9s-0.9,1.9-1.9,1.9
	C24.2,359.3,23.4,358.5,23.4,357.4"/>
<circle id="XMLID_35_" class="st2" cx="25.3" cy="357.4" r="1.9"/>
<path id="XMLID_34_" class="st1" d="M22.3,352.4c0-0.8,0.7-1.5,1.5-1.5s1.5,0.7,1.5,1.5s-0.7,1.5-1.5,1.5S22.3,353.3,22.3,352.4"/>
<circle id="XMLID_33_" class="st2" cx="23.8" cy="352.4" r="1.5"/>
<path id="XMLID_32_" class="st1" d="M20.9,348.3c0-0.7,0.5-1.2,1.2-1.2s1.2,0.6,1.2,1.2s-0.6,1.2-1.2,1.2S20.9,349,20.9,348.3"/>
<circle id="XMLID_31_" class="st2" cx="22.1" cy="348.3" r="1.2"/>
<path id="XMLID_30_" class="st1" d="M19.4,345c0-0.5,0.4-0.9,0.9-0.9s0.9,0.4,0.9,0.9s-0.4,0.9-0.9,0.9S19.4,345.5,19.4,345"/>
<circle id="XMLID_29_" class="st2" cx="20.3" cy="345" r="0.9"/>
<path id="XMLID_28_" class="st1" d="M18.4,342.1c0-0.4,0.3-0.7,0.7-0.7c0.4,0,0.7,0.3,0.7,0.7c0,0.4-0.3,0.7-0.7,0.7
	C18.7,342.8,18.4,342.5,18.4,342.1"/>
<circle id="XMLID_27_" class="st2" cx="19.1" cy="342.1" r="0.7"/>
<path id="XMLID_26_" class="st1" d="M18.4,326.3c0-1,0.9-1.9,1.9-1.9c1.1,0,1.9,0.9,1.9,1.9c0,1.1-0.9,1.9-1.9,1.9
	C19.3,328.2,18.4,327.3,18.4,326.3"/>
<circle id="XMLID_25_" class="st2" cx="20.3" cy="326.3" r="1.9"/>
<path id="XMLID_24_" class="st1" d="M19.6,409.8c0-1.1,0.9-1.9,1.9-1.9c1.1,0,1.9,0.9,1.9,1.9s-0.9,1.9-1.9,1.9
	C20.5,411.7,19.6,410.8,19.6,409.8"/>
<circle id="XMLID_23_" class="st2" cx="21.5" cy="409.8" r="1.9"/>
<path id="XMLID_22_" class="st1" d="M23.6,324.6c0-1,0.9-1.9,1.9-1.9c1.1,0,1.9,0.9,1.9,1.9c0,1.1-0.9,1.9-1.9,1.9
	C24.4,326.5,23.6,325.7,23.6,324.6"/>
<circle id="XMLID_21_" class="st2" cx="25.5" cy="324.6" r="1.9"/>
<path id="XMLID_20_" class="st1" d="M66.7,373c0-1,0.9-1.9,1.9-1.9c1.1,0,1.9,0.9,1.9,1.9c0,1.1-0.9,1.9-1.9,1.9
	C67.5,374.9,66.7,374,66.7,373"/>
<circle id="XMLID_19_" class="st2" cx="68.6" cy="373" r="1.9"/>
<path id="XMLID_18_" class="st1" d="M60.3,357.5c0-1,0.9-1.9,1.9-1.9c1.1,0,1.9,0.9,1.9,1.9c0,1.1-0.9,1.9-1.9,1.9
	C61.1,359.4,60.3,358.6,60.3,357.5"/>
<circle id="XMLID_17_" class="st2" cx="62.2" cy="357.5" r="1.9"/>
<path id="XMLID_16_" class="st1" d="M58.7,353c0-0.9,0.7-1.6,1.6-1.6c0.9,0,1.6,0.7,1.6,1.6s-0.7,1.6-1.6,1.6
	C59.4,354.5,58.7,353.8,58.7,353"/>
<circle id="XMLID_15_" class="st2" cx="60.3" cy="353" r="1.6"/>
<path id="XMLID_14_" class="st1" d="M28.8,323.1c0-1,0.9-1.9,1.9-1.9c1.1,0,1.9,0.9,1.9,1.9c0,1.1-0.9,1.9-1.9,1.9
	C29.6,325,28.8,324.2,28.8,323.1"/>
<circle id="XMLID_13_" class="st2" cx="30.7" cy="323.1" r="1.9"/>
<path id="XMLID_12_" class="st0" d="M2.1,396.7c0,0,11.8,22.3,0,22.3"/>
<path id="XMLID_11_" class="st0" d="M7,396.1c0,0,16.6,5.4,10.7,11.1C11.9,412.9,7,396.1,7,396.1z"/>
<path id="XMLID_10_" class="st0" d="M18.4,333.8c0,0,9.3,24.7,32.6,29c0,0-10.5-1-11.8-12.7C37.8,338.5,32.5,326.6,18.4,333.8z"/>
<path id="XMLID_9_" class="st0" d="M32.6,370.7c4,7.6,14.7,6.4,22.3,5.7c8.5-0.9,17.8,6.6,17.8,6.6"/>
<path id="XMLID_8_" class="st0" d="M45.4,351c0,0-7-13.8,1.2-26"/>
<path id="XMLID_7_" class="st1" d="M60.1,365c0-2.8,2.3-5.1,5.1-5.1c2.8,0,5.1,2.3,5.1,5.1s-2.3,5.1-5.1,5.1S60.1,367.8,60.1,365"/>
<circle id="XMLID_6_" class="st2" cx="65.2" cy="365" r="5.1"/>
<path id="XMLID_5_" class="st0" d="M56.5,350.3c0,0-10.6-0.6-7.1-18.1"/>
<path id="XMLID_4_" class="st0" d="M49.5,381c0.1,0.3,1.8,9.9-4.9,20.3c0,0-11.1-0.3-19.8-7.7"/>
<path id="XMLID_3_" class="st0" d="M39.7,379.4c0,0.6,3.9,7.5,2.8,17.9c0,0-8.4-5.5-13.4-11.5"/>
<polyline id="XMLID_2_" class="st3" points="-211.4,-1 215.5,-1 215.5,425.9 -211.4,425.9 "/>
</svg>
